<svg width="35" height="57" viewBox="0 0 35 57" fill="none" xmlns="http://www.w3.org/2000/svg">
<path d="M0 32.7817L16.5 26.3795L34.1115 31.6367L17.378 40.5666L0 32.7817Z" fill="#357400"/>
<path d="M0 32.644L17 38.8796V56.144L0 48.8796V32.644Z" fill="#0C1B00"/>
<path d="M17 38.8798L34 31.6396V48.1396L17 56.1396V38.8798Z" fill="#B5E48C"/>
<path d="M15.3241 14.96C15.3241 14.3733 15.3841 13.8733 15.5041 13.46C15.6375 13.0333 15.8241 12.6667 16.0641 12.36C16.3175 12.0533 16.6375 11.7867 17.0241 11.56C17.2775 11.4 17.5641 11.2333 17.8841 11.06C18.2175 10.8867 18.5241 10.6867 18.8041 10.46C19.0975 10.22 19.3375 9.93333 19.5241 9.6C19.7108 9.25333 19.8041 8.84 19.8041 8.36C19.8041 7.77333 19.6708 7.29333 19.4041 6.92C19.1508 6.53333 18.8175 6.24667 18.4041 6.06C17.9908 5.86 17.5508 5.76 17.0841 5.76C16.6175 5.76 16.1708 5.85333 15.7441 6.04C15.3308 6.21333 14.9641 6.45333 14.6441 6.76C14.3241 7.06667 14.0641 7.41333 13.8641 7.8L12.9241 7.2C13.1775 6.65333 13.5175 6.18667 13.9441 5.8C14.3841 5.41333 14.8775 5.12 15.4241 4.92C15.9708 4.72 16.5308 4.62 17.1041 4.62C17.5975 4.62 18.0775 4.7 18.5441 4.86C19.0108 5.00667 19.4241 5.24 19.7841 5.56C20.1575 5.88 20.4508 6.28 20.6641 6.76C20.8908 7.22667 21.0041 7.78667 21.0041 8.44C21.0041 8.97333 20.9308 9.42667 20.7841 9.8C20.6375 10.16 20.4308 10.4733 20.1641 10.74C19.9108 10.9933 19.6241 11.22 19.3041 11.42C18.9841 11.62 18.6508 11.8133 18.3041 12C17.9975 12.1733 17.7041 12.3667 17.4241 12.58C17.1441 12.7933 16.9175 13.0867 16.7441 13.46C16.5708 13.82 16.4841 14.32 16.4841 14.96H15.3241ZM15.3441 19V16.86H16.5241V19H15.3441Z" fill="#357400"/>
</svg>
