<svg width="172" height="41" viewBox="0 0 172 41" fill="none" xmlns="http://www.w3.org/2000/svg">
<path d="M46.8066 31.2305V18.7689H48.3643V29.9324H58.2297V31.2305H46.8066ZM74.8532 18.7689V24.9997C74.8532 25.7353 74.8424 26.4059 74.8208 27.0117C74.8045 27.6175 74.7423 28.1611 74.6342 28.6424C74.5314 29.1238 74.3664 29.543 74.1393 29.8999C73.9121 30.2569 73.5876 30.5544 73.1657 30.7924C72.7438 31.0249 72.2057 31.198 71.5512 31.3116C70.9022 31.4306 70.1017 31.4901 69.1498 31.4901H65.4989C64.547 31.4901 63.7438 31.4306 63.0894 31.3116C62.4404 31.198 61.9049 31.0249 61.483 30.7924C61.0611 30.5544 60.7339 30.2569 60.5014 29.8999C60.2742 29.543 60.1065 29.1238 59.9983 28.6424C59.8956 28.1611 59.8361 27.6175 59.8199 27.0117C59.8036 26.4059 59.7955 25.7353 59.7955 24.9997V18.7689H61.3532V24.9997C61.3532 25.7785 61.3586 26.4492 61.3694 27.0117C61.3857 27.5688 61.4316 28.0394 61.5074 28.4234C61.5831 28.8074 61.7021 29.1157 61.8643 29.3483C62.032 29.5808 62.27 29.7593 62.5783 29.8837C62.8866 30.0081 63.276 30.0919 63.7465 30.1352C64.2225 30.1731 64.8066 30.192 65.4989 30.192H69.1498C69.8367 30.192 70.4181 30.1731 70.8941 30.1352C71.37 30.0919 71.7595 30.0081 72.0623 29.8837C72.3706 29.7593 72.6086 29.5808 72.7763 29.3483C72.944 29.1157 73.0657 28.8074 73.1414 28.4234C73.2225 28.0394 73.2685 27.5688 73.2793 27.0117C73.2901 26.4492 73.2955 25.7785 73.2955 24.9997L73.2874 18.7689H74.8532ZM79.0152 19.8074V31.2305H77.4575V18.7689H80.0536L87.3148 29.6728L94.5759 18.7689H97.0584V31.2305H95.5007V19.9778L88.1017 31.2305H86.5278L79.0152 19.8074ZM100.174 18.7689H101.732V31.2305H100.174V18.7689Z" fill="#0C1B00"/>
<path d="M106.405 31.2305H104.847V18.7689H107.581L119.004 29.6728V18.7689H120.562V31.2305H118.485L106.405 20.067V31.2305ZM123.685 31.2305V18.7689H136.147V20.067H125.243V24.2209H135.628V25.5189H125.243V29.9324H136.147V31.2305H123.685ZM146.475 24.659L153.801 31.2305H151.594L145.387 25.665L139.392 31.2305H137.185L144.268 24.659L137.704 18.7689H139.911L145.347 23.6529L150.612 18.7689H152.819L146.475 24.659ZM168.079 28.3747H158.214L156.656 31.2305H154.839L162.108 18.7689H164.185L171.454 31.2305H169.637L168.079 28.3747ZM167.301 27.0766L163.147 19.8074L158.993 27.0766H167.301Z" fill="#B5E48C"/>
<path d="M2 16.782L18.5 10.3798L36.1115 15.6369L19.378 24.5668L2 16.782Z" fill="#357400"/>
<path d="M2 16.6443L19 22.8799V40.1443L2 32.8799V16.6443Z" fill="#0C1B00"/>
<path d="M19 22.8798L36 15.6396V32.1396L19 40.1396V22.8798Z" fill="#B5E48C"/>
</svg>
