<svg width="1363" height="163" viewBox="0 0 1363 163" fill="none" xmlns="http://www.w3.org/2000/svg">
<path d="M0 15C0 6.71573 6.71573 0 15 0H37V163H15C6.71573 163 0 156.284 0 148V15Z" fill="#424242"/>
<rect width="1097" height="163" transform="translate(37)" fill="#F0F0F0"/>
<path d="M101.906 53.9219L94.3945 51.2383V48.0859L104.602 52.375V54.6367L101.906 53.9219ZM94.3945 56.1719L101.918 53.4297L104.602 52.7852V55.0352L94.3945 59.3242V56.1719ZM123.867 58.2578V61H115.277V58.2578H123.867ZM116.414 43.9375V61H112.898V43.9375H116.414ZM132.891 57.9648V48.3203H136.266V61H133.09L132.891 57.9648ZM133.266 55.3633L134.262 55.3398C134.262 56.1836 134.164 56.9688 133.969 57.6953C133.773 58.4141 133.48 59.0391 133.09 59.5703C132.699 60.0938 132.207 60.5039 131.613 60.8008C131.02 61.0898 130.32 61.2344 129.516 61.2344C128.898 61.2344 128.328 61.1484 127.805 60.9766C127.289 60.7969 126.844 60.5195 126.469 60.1445C126.102 59.7617 125.812 59.2734 125.602 58.6797C125.398 58.0781 125.297 57.3555 125.297 56.5117V48.3203H128.672V56.5352C128.672 56.9102 128.715 57.2266 128.801 57.4844C128.895 57.7422 129.023 57.9531 129.188 58.1172C129.352 58.2812 129.543 58.3984 129.762 58.4688C129.988 58.5391 130.238 58.5742 130.512 58.5742C131.207 58.5742 131.754 58.4336 132.152 58.1523C132.559 57.8711 132.844 57.4883 133.008 57.0039C133.18 56.5117 133.266 55.9648 133.266 55.3633ZM142.219 50.9453V61H138.832V48.3203H142.008L142.219 50.9453ZM141.75 54.2148H140.812C140.812 53.332 140.918 52.5195 141.129 51.7773C141.348 51.0273 141.664 50.3789 142.078 49.832C142.5 49.2773 143.02 48.8477 143.637 48.543C144.254 48.2383 144.969 48.0859 145.781 48.0859C146.344 48.0859 146.859 48.1719 147.328 48.3438C147.797 48.5078 148.199 48.7695 148.535 49.1289C148.879 49.4805 149.145 49.9414 149.332 50.5117C149.52 51.0742 149.613 51.75 149.613 52.5391V61H146.238V52.9141C146.238 52.3359 146.16 51.8906 146.004 51.5781C145.848 51.2656 145.625 51.0469 145.336 50.9219C145.055 50.7969 144.715 50.7344 144.316 50.7344C143.879 50.7344 143.496 50.8242 143.168 51.0039C142.848 51.1836 142.582 51.4336 142.371 51.7539C142.16 52.0664 142.004 52.4336 141.902 52.8555C141.801 53.2773 141.75 53.7305 141.75 54.2148ZM149.297 53.8281L148.09 53.9805C148.09 53.1523 148.191 52.3828 148.395 51.6719C148.605 50.9609 148.914 50.3359 149.32 49.7969C149.734 49.2578 150.246 48.8398 150.855 48.543C151.465 48.2383 152.168 48.0859 152.965 48.0859C153.574 48.0859 154.129 48.1758 154.629 48.3555C155.129 48.5273 155.555 48.8047 155.906 49.1875C156.266 49.5625 156.539 50.0547 156.727 50.6641C156.922 51.2734 157.02 52.0195 157.02 52.9023V61H153.633V52.9023C153.633 52.3164 153.555 51.8711 153.398 51.5664C153.25 51.2539 153.031 51.0391 152.742 50.9219C152.461 50.7969 152.125 50.7344 151.734 50.7344C151.328 50.7344 150.973 50.8164 150.668 50.9805C150.363 51.1367 150.109 51.3555 149.906 51.6367C149.703 51.918 149.551 52.2461 149.449 52.6211C149.348 52.9883 149.297 53.3906 149.297 53.8281ZM163.195 48.3203V61H159.809V48.3203H163.195ZM159.598 45.0156C159.598 44.5234 159.77 44.1172 160.113 43.7969C160.457 43.4766 160.918 43.3164 161.496 43.3164C162.066 43.3164 162.523 43.4766 162.867 43.7969C163.219 44.1172 163.395 44.5234 163.395 45.0156C163.395 45.5078 163.219 45.9141 162.867 46.2344C162.523 46.5547 162.066 46.7148 161.496 46.7148C160.918 46.7148 160.457 46.5547 160.113 46.2344C159.77 45.9141 159.598 45.5078 159.598 45.0156ZM169.289 51.0273V61H165.914V48.3203H169.078L169.289 51.0273ZM168.797 54.2148H167.883C167.883 53.2773 168.004 52.4336 168.246 51.6836C168.488 50.9258 168.828 50.2812 169.266 49.75C169.703 49.2109 170.223 48.8008 170.824 48.5195C171.434 48.2305 172.113 48.0859 172.863 48.0859C173.457 48.0859 174 48.1719 174.492 48.3438C174.984 48.5156 175.406 48.7891 175.758 49.1641C176.117 49.5391 176.391 50.0352 176.578 50.6523C176.773 51.2695 176.871 52.0234 176.871 52.9141V61H173.473V52.9023C173.473 52.3398 173.395 51.9023 173.238 51.5898C173.082 51.2773 172.852 51.0586 172.547 50.9336C172.25 50.8008 171.883 50.7344 171.445 50.7344C170.992 50.7344 170.598 50.8242 170.262 51.0039C169.934 51.1836 169.66 51.4336 169.441 51.7539C169.23 52.0664 169.07 52.4336 168.961 52.8555C168.852 53.2773 168.797 53.7305 168.797 54.2148ZM185.273 61.2344C184.289 61.2344 183.406 61.0781 182.625 60.7656C181.844 60.4453 181.18 60.0039 180.633 59.4414C180.094 58.8789 179.68 58.2266 179.391 57.4844C179.102 56.7344 178.957 55.9375 178.957 55.0938V54.625C178.957 53.6641 179.094 52.7852 179.367 51.9883C179.641 51.1914 180.031 50.5 180.539 49.9141C181.055 49.3281 181.68 48.8789 182.414 48.5664C183.148 48.2461 183.977 48.0859 184.898 48.0859C185.797 48.0859 186.594 48.2344 187.289 48.5312C187.984 48.8281 188.566 49.25 189.035 49.7969C189.512 50.3438 189.871 51 190.113 51.7656C190.355 52.5234 190.477 53.3672 190.477 54.2969V55.7031H180.398V53.4531H187.16V53.1953C187.16 52.7266 187.074 52.3086 186.902 51.9414C186.738 51.5664 186.488 51.2695 186.152 51.0508C185.816 50.832 185.387 50.7227 184.863 50.7227C184.418 50.7227 184.035 50.8203 183.715 51.0156C183.395 51.2109 183.133 51.4844 182.93 51.8359C182.734 52.1875 182.586 52.6016 182.484 53.0781C182.391 53.5469 182.344 54.0625 182.344 54.625V55.0938C182.344 55.6016 182.414 56.0703 182.555 56.5C182.703 56.9297 182.91 57.3008 183.176 57.6133C183.449 57.9258 183.777 58.168 184.16 58.3398C184.551 58.5117 184.992 58.5977 185.484 58.5977C186.094 58.5977 186.66 58.4805 187.184 58.2461C187.715 58.0039 188.172 57.6406 188.555 57.1562L190.195 58.9375C189.93 59.3203 189.566 59.6875 189.105 60.0391C188.652 60.3906 188.105 60.6797 187.465 60.9062C186.824 61.125 186.094 61.2344 185.273 61.2344ZM195.117 48.3203L197.215 52.1758L199.371 48.3203H202.969L199.383 54.5195L203.133 61H199.523L197.238 56.9219L194.953 61H191.344L195.094 54.5195L191.508 48.3203H195.117ZM211.453 58.1406V52.4922C211.453 52.0859 211.387 51.7383 211.254 51.4492C211.121 51.1523 210.914 50.9219 210.633 50.7578C210.359 50.5938 210.004 50.5117 209.566 50.5117C209.191 50.5117 208.867 50.5781 208.594 50.7109C208.32 50.8359 208.109 51.0195 207.961 51.2617C207.812 51.4961 207.738 51.7734 207.738 52.0938H204.363C204.363 51.5547 204.488 51.043 204.738 50.5586C204.988 50.0742 205.352 49.6484 205.828 49.2812C206.305 48.9062 206.871 48.6133 207.527 48.4023C208.191 48.1914 208.934 48.0859 209.754 48.0859C210.738 48.0859 211.613 48.25 212.379 48.5781C213.145 48.9062 213.746 49.3984 214.184 50.0547C214.629 50.7109 214.852 51.5312 214.852 52.5156V57.9414C214.852 58.6367 214.895 59.207 214.98 59.6523C215.066 60.0898 215.191 60.4727 215.355 60.8008V61H211.945C211.781 60.6562 211.656 60.2266 211.57 59.7109C211.492 59.1875 211.453 58.6641 211.453 58.1406ZM211.898 53.2773L211.922 55.1875H210.035C209.59 55.1875 209.203 55.2383 208.875 55.3398C208.547 55.4414 208.277 55.5859 208.066 55.7734C207.855 55.9531 207.699 56.1641 207.598 56.4062C207.504 56.6484 207.457 56.9141 207.457 57.2031C207.457 57.4922 207.523 57.7539 207.656 57.9883C207.789 58.2148 207.98 58.3945 208.23 58.5273C208.48 58.6523 208.773 58.7148 209.109 58.7148C209.617 58.7148 210.059 58.6133 210.434 58.4102C210.809 58.207 211.098 57.957 211.301 57.6602C211.512 57.3633 211.621 57.082 211.629 56.8164L212.52 58.2461C212.395 58.5664 212.223 58.8984 212.004 59.2422C211.793 59.5859 211.523 59.9102 211.195 60.2148C210.867 60.5117 210.473 60.7578 210.012 60.9531C209.551 61.1406 209.004 61.2344 208.371 61.2344C207.566 61.2344 206.836 61.0742 206.18 60.7539C205.531 60.4258 205.016 59.9766 204.633 59.4062C204.258 58.8281 204.07 58.1719 204.07 57.4375C204.07 56.7734 204.195 56.1836 204.445 55.668C204.695 55.1523 205.062 54.7188 205.547 54.3672C206.039 54.0078 206.652 53.7383 207.387 53.5586C208.121 53.3711 208.973 53.2773 209.941 53.2773H211.898Z" fill="#888888"/>
<path d="M112.125 84.875V119H103.898V84.875H112.125ZM122.391 84.875V91.2266H93.8672V84.875H122.391ZM135.68 119.469C133.617 119.469 131.773 119.148 130.148 118.508C128.523 117.852 127.148 116.953 126.023 115.812C124.914 114.672 124.062 113.359 123.469 111.875C122.891 110.391 122.602 108.82 122.602 107.164V106.273C122.602 104.414 122.859 102.695 123.375 101.117C123.891 99.5234 124.656 98.1328 125.672 96.9453C126.688 95.7578 127.961 94.8359 129.492 94.1797C131.023 93.5078 132.805 93.1719 134.836 93.1719C136.633 93.1719 138.242 93.4609 139.664 94.0391C141.086 94.6172 142.289 95.4453 143.273 96.5234C144.273 97.6016 145.031 98.9062 145.547 100.438C146.078 101.969 146.344 103.688 146.344 105.594V108.805H125.625V103.859H138.633V103.25C138.648 102.406 138.5 101.688 138.188 101.094C137.891 100.5 137.453 100.047 136.875 99.7344C136.297 99.4219 135.594 99.2656 134.766 99.2656C133.906 99.2656 133.195 99.4531 132.633 99.8281C132.086 100.203 131.656 100.719 131.344 101.375C131.047 102.016 130.836 102.758 130.711 103.602C130.586 104.445 130.523 105.336 130.523 106.273V107.164C130.523 108.102 130.648 108.953 130.898 109.719C131.164 110.484 131.539 111.141 132.023 111.688C132.523 112.219 133.117 112.633 133.805 112.93C134.508 113.227 135.305 113.375 136.195 113.375C137.273 113.375 138.336 113.172 139.383 112.766C140.43 112.359 141.328 111.688 142.078 110.75L145.664 115.016C145.148 115.75 144.414 116.461 143.461 117.148C142.523 117.836 141.398 118.398 140.086 118.836C138.773 119.258 137.305 119.469 135.68 119.469ZM160.266 113.375C161 113.375 161.625 113.242 162.141 112.977C162.672 112.695 163.07 112.305 163.336 111.805C163.617 111.289 163.75 110.672 163.734 109.953H171.164C171.18 111.859 170.711 113.531 169.758 114.969C168.82 116.391 167.539 117.5 165.914 118.297C164.305 119.078 162.484 119.469 160.453 119.469C158.469 119.469 156.734 119.148 155.25 118.508C153.766 117.852 152.523 116.945 151.523 115.789C150.539 114.617 149.797 113.25 149.297 111.688C148.812 110.125 148.57 108.43 148.57 106.602V106.062C148.57 104.234 148.812 102.539 149.297 100.977C149.797 99.3984 150.539 98.0312 151.523 96.875C152.523 95.7031 153.758 94.7969 155.227 94.1562C156.711 93.5 158.438 93.1719 160.406 93.1719C162.516 93.1719 164.375 93.5703 165.984 94.3672C167.609 95.1641 168.883 96.3203 169.805 97.8359C170.727 99.3516 171.18 101.188 171.164 103.344H163.734C163.75 102.578 163.633 101.891 163.383 101.281C163.133 100.672 162.742 100.188 162.211 99.8281C161.695 99.4531 161.031 99.2656 160.219 99.2656C159.406 99.2656 158.75 99.4453 158.25 99.8047C157.75 100.164 157.367 100.664 157.102 101.305C156.852 101.93 156.68 102.648 156.586 103.461C156.508 104.273 156.469 105.141 156.469 106.062V106.602C156.469 107.539 156.508 108.422 156.586 109.25C156.68 110.062 156.859 110.781 157.125 111.406C157.391 112.016 157.773 112.5 158.273 112.859C158.773 113.203 159.438 113.375 160.266 113.375ZM182.273 83V119H174.375V83H182.273ZM181.336 105.453L179.484 105.5C179.484 103.719 179.703 102.078 180.141 100.578C180.578 99.0781 181.203 97.7734 182.016 96.6641C182.828 95.5547 183.805 94.6953 184.945 94.0859C186.086 93.4766 187.352 93.1719 188.742 93.1719C189.992 93.1719 191.133 93.3516 192.164 93.7109C193.211 94.0703 194.109 94.6484 194.859 95.4453C195.625 96.2422 196.211 97.2812 196.617 98.5625C197.039 99.8438 197.25 101.406 197.25 103.25V119H189.305V103.203C189.305 102.172 189.156 101.375 188.859 100.812C188.578 100.234 188.172 99.8359 187.641 99.6172C187.109 99.3828 186.461 99.2656 185.695 99.2656C184.773 99.2656 184.023 99.4219 183.445 99.7344C182.867 100.047 182.422 100.484 182.109 101.047C181.812 101.594 181.609 102.242 181.5 102.992C181.391 103.742 181.336 104.562 181.336 105.453ZM231.539 109.93C231.539 109.398 231.461 108.922 231.305 108.5C231.148 108.062 230.859 107.656 230.438 107.281C230.016 106.906 229.406 106.531 228.609 106.156C227.828 105.766 226.797 105.359 225.516 104.938C224.016 104.438 222.57 103.875 221.18 103.25C219.789 102.609 218.547 101.867 217.453 101.023C216.359 100.164 215.492 99.1641 214.852 98.0234C214.211 96.8672 213.891 95.5234 213.891 93.9922C213.891 92.5234 214.219 91.2031 214.875 90.0312C215.531 88.8438 216.445 87.8359 217.617 87.0078C218.805 86.1641 220.195 85.5234 221.789 85.0859C223.383 84.6328 225.125 84.4062 227.016 84.4062C229.516 84.4062 231.719 84.8438 233.625 85.7188C235.547 86.5781 237.047 87.8047 238.125 89.3984C239.219 90.9766 239.766 92.8438 239.766 95H231.586C231.586 94.1406 231.406 93.3828 231.047 92.7266C230.703 92.0703 230.18 91.5547 229.477 91.1797C228.773 90.8047 227.891 90.6172 226.828 90.6172C225.797 90.6172 224.93 90.7734 224.227 91.0859C223.523 91.3984 222.992 91.8203 222.633 92.3516C222.273 92.8672 222.094 93.4375 222.094 94.0625C222.094 94.5781 222.234 95.0469 222.516 95.4688C222.812 95.875 223.227 96.2578 223.758 96.6172C224.305 96.9766 224.961 97.3203 225.727 97.6484C226.508 97.9766 227.383 98.2969 228.352 98.6094C230.164 99.1875 231.773 99.8359 233.18 100.555C234.602 101.258 235.797 102.062 236.766 102.969C237.75 103.859 238.492 104.875 238.992 106.016C239.508 107.156 239.766 108.445 239.766 109.883C239.766 111.414 239.469 112.773 238.875 113.961C238.281 115.148 237.43 116.156 236.32 116.984C235.211 117.797 233.883 118.414 232.336 118.836C230.789 119.258 229.062 119.469 227.156 119.469C225.406 119.469 223.68 119.25 221.977 118.812C220.289 118.359 218.758 117.672 217.383 116.75C216.008 115.812 214.906 114.617 214.078 113.164C213.266 111.695 212.859 109.953 212.859 107.938H221.109C221.109 108.938 221.242 109.781 221.508 110.469C221.773 111.156 222.164 111.711 222.68 112.133C223.195 112.539 223.828 112.836 224.578 113.023C225.328 113.195 226.188 113.281 227.156 113.281C228.203 113.281 229.047 113.133 229.688 112.836C230.328 112.523 230.797 112.117 231.094 111.617C231.391 111.102 231.539 110.539 231.539 109.93ZM256.992 93.6406V99.125H241.711V93.6406H256.992ZM244.922 87.3359H252.82V110.727C252.82 111.398 252.898 111.922 253.055 112.297C253.211 112.656 253.477 112.914 253.852 113.07C254.242 113.211 254.758 113.281 255.398 113.281C255.852 113.281 256.227 113.273 256.523 113.258C256.82 113.227 257.102 113.188 257.367 113.141V118.789C256.695 119.008 255.992 119.172 255.258 119.281C254.523 119.406 253.742 119.469 252.914 119.469C251.227 119.469 249.781 119.203 248.578 118.672C247.391 118.141 246.484 117.305 245.859 116.164C245.234 115.023 244.922 113.539 244.922 111.711V87.3359ZM273.305 112.625V102.172C273.305 101.453 273.203 100.836 273 100.32C272.797 99.8047 272.477 99.4062 272.039 99.125C271.602 98.8281 271.016 98.6797 270.281 98.6797C269.688 98.6797 269.18 98.7812 268.758 98.9844C268.336 99.1875 268.016 99.4922 267.797 99.8984C267.578 100.305 267.469 100.82 267.469 101.445H259.57C259.57 100.273 259.828 99.1875 260.344 98.1875C260.875 97.1719 261.625 96.2891 262.594 95.5391C263.578 94.7891 264.75 94.2109 266.109 93.8047C267.484 93.3828 269.016 93.1719 270.703 93.1719C272.719 93.1719 274.516 93.5078 276.094 94.1797C277.688 94.8516 278.945 95.8594 279.867 97.2031C280.789 98.5312 281.25 100.203 281.25 102.219V112.602C281.25 114.258 281.344 115.516 281.531 116.375C281.719 117.219 281.984 117.961 282.328 118.602V119H274.406C274.031 118.219 273.75 117.266 273.562 116.141C273.391 115 273.305 113.828 273.305 112.625ZM274.266 103.508L274.312 107.727H270.82C270.086 107.727 269.461 107.828 268.945 108.031C268.445 108.234 268.039 108.516 267.727 108.875C267.43 109.219 267.211 109.609 267.07 110.047C266.945 110.484 266.883 110.945 266.883 111.43C266.883 111.898 266.992 112.32 267.211 112.695C267.445 113.055 267.758 113.336 268.148 113.539C268.539 113.742 268.977 113.844 269.461 113.844C270.336 113.844 271.078 113.68 271.688 113.352C272.312 113.008 272.789 112.594 273.117 112.109C273.445 111.625 273.609 111.172 273.609 110.75L275.344 113.984C275.031 114.609 274.672 115.242 274.266 115.883C273.875 116.523 273.383 117.117 272.789 117.664C272.211 118.195 271.5 118.633 270.656 118.977C269.812 119.305 268.789 119.469 267.586 119.469C266.023 119.469 264.586 119.148 263.273 118.508C261.977 117.867 260.938 116.977 260.156 115.836C259.375 114.68 258.984 113.352 258.984 111.852C258.984 110.539 259.219 109.367 259.688 108.336C260.172 107.305 260.898 106.43 261.867 105.711C262.836 104.992 264.07 104.445 265.57 104.07C267.07 103.695 268.836 103.508 270.867 103.508H274.266ZM296.344 113.375C297.078 113.375 297.703 113.242 298.219 112.977C298.75 112.695 299.148 112.305 299.414 111.805C299.695 111.289 299.828 110.672 299.812 109.953H307.242C307.258 111.859 306.789 113.531 305.836 114.969C304.898 116.391 303.617 117.5 301.992 118.297C300.383 119.078 298.562 119.469 296.531 119.469C294.547 119.469 292.812 119.148 291.328 118.508C289.844 117.852 288.602 116.945 287.602 115.789C286.617 114.617 285.875 113.25 285.375 111.688C284.891 110.125 284.648 108.43 284.648 106.602V106.062C284.648 104.234 284.891 102.539 285.375 100.977C285.875 99.3984 286.617 98.0312 287.602 96.875C288.602 95.7031 289.836 94.7969 291.305 94.1562C292.789 93.5 294.516 93.1719 296.484 93.1719C298.594 93.1719 300.453 93.5703 302.062 94.3672C303.688 95.1641 304.961 96.3203 305.883 97.8359C306.805 99.3516 307.258 101.188 307.242 103.344H299.812C299.828 102.578 299.711 101.891 299.461 101.281C299.211 100.672 298.82 100.188 298.289 99.8281C297.773 99.4531 297.109 99.2656 296.297 99.2656C295.484 99.2656 294.828 99.4453 294.328 99.8047C293.828 100.164 293.445 100.664 293.18 101.305C292.93 101.93 292.758 102.648 292.664 103.461C292.586 104.273 292.547 105.141 292.547 106.062V106.602C292.547 107.539 292.586 108.422 292.664 109.25C292.758 110.062 292.938 110.781 293.203 111.406C293.469 112.016 293.852 112.5 294.352 112.859C294.852 113.203 295.516 113.375 296.344 113.375ZM318.586 82.9766V119H310.688V82.9766H318.586ZM334.805 93.6406L323.789 106.555L318.023 112.32L314.578 107.305L319.383 101.047L325.336 93.6406H334.805ZM326.344 119L319.57 107.445L325.406 103.297L335.391 119H326.344Z" fill="black"/>
<path d="M1134 0H1348C1356.28 0 1363 6.71573 1363 15V148C1363 156.284 1356.28 163 1348 163H1134V0Z" fill="#357400"/>
<path fill-rule="evenodd" clip-rule="evenodd" d="M1218.75 53C1218.62 53 1218.49 53.0527 1218.4 53.1464C1218.3 53.2402 1218.25 53.3674 1218.25 53.5V109.5C1218.25 109.633 1218.3 109.76 1218.4 109.854C1218.49 109.947 1218.62 110 1218.75 110H1278.25C1278.38 110 1278.51 109.947 1278.6 109.854C1278.7 109.76 1278.75 109.633 1278.75 109.5V64C1278.75 63.8674 1278.7 63.7402 1278.6 63.6464C1278.51 63.5527 1278.38 63.5 1278.25 63.5H1248.5C1247.61 63.5 1246.77 63.1045 1246.2 62.4206L1238.34 53H1218.75ZM1214.15 48.9038C1215.37 47.6848 1217.03 47 1218.75 47H1239.75C1240.64 47 1241.48 47.3955 1242.05 48.0794L1249.91 57.5H1278.25C1279.97 57.5 1281.63 58.1848 1282.85 59.4038C1284.07 60.6228 1284.75 62.2761 1284.75 64V109.5C1284.75 111.224 1284.07 112.877 1282.85 114.096C1281.63 115.315 1279.97 116 1278.25 116H1218.75C1217.03 116 1215.37 115.315 1214.15 114.096C1212.93 112.877 1212.25 111.224 1212.25 109.5V53.5C1212.25 51.7761 1212.93 50.1228 1214.15 48.9038Z" fill="white"/>
<path fill-rule="evenodd" clip-rule="evenodd" d="M1243.97 75.5251C1245.34 76.892 1245.34 79.108 1243.97 80.4749L1237.7 86.75L1243.97 93.0251C1245.34 94.392 1245.34 96.608 1243.97 97.9749C1242.61 99.3417 1240.39 99.3417 1239.03 97.9749L1230.28 89.2249C1228.91 87.858 1228.91 85.642 1230.28 84.2751L1239.03 75.5251C1240.39 74.1583 1242.61 74.1583 1243.97 75.5251Z" fill="white"/>
<path fill-rule="evenodd" clip-rule="evenodd" d="M1252.28 97.9749C1250.91 96.608 1250.91 94.392 1252.28 93.0251L1258.55 86.75L1252.28 80.4749C1250.91 79.108 1250.91 76.892 1252.28 75.5251C1253.64 74.1583 1255.86 74.1583 1257.22 75.5251L1265.97 84.2751C1267.34 85.642 1267.34 87.858 1265.97 89.2249L1257.22 97.9749C1255.86 99.3417 1253.64 99.3417 1252.28 97.9749Z" fill="white"/>
</svg>
