<svg width="1363" height="297" viewBox="0 0 1363 297" fill="none" xmlns="http://www.w3.org/2000/svg">
<path d="M0 15C0 6.71573 6.71573 0 15 0H37V297H15C6.71573 297 0 290.284 0 282V15Z" fill="#357400"/>
<path d="M37 0H1066V297H37V0Z" fill="#F0F0F0"/>
<path d="M97.6934 49.4062H102.158L108.732 68.1973L115.307 49.4062H119.771L110.525 75H106.939L97.6934 49.4062ZM95.2852 49.4062H99.7324L100.541 67.7227V75H95.2852V49.4062ZM117.732 49.4062H122.197V75H116.924V67.7227L117.732 49.4062ZM125.695 65.6836V65.3145C125.695 63.9199 125.895 62.6367 126.293 61.4648C126.691 60.2812 127.271 59.2559 128.033 58.3887C128.795 57.5215 129.732 56.8477 130.846 56.3672C131.959 55.875 133.236 55.6289 134.678 55.6289C136.119 55.6289 137.402 55.875 138.527 56.3672C139.652 56.8477 140.596 57.5215 141.357 58.3887C142.131 59.2559 142.717 60.2812 143.115 61.4648C143.514 62.6367 143.713 63.9199 143.713 65.3145V65.6836C143.713 67.0664 143.514 68.3496 143.115 69.5332C142.717 70.7051 142.131 71.7305 141.357 72.6094C140.596 73.4766 139.658 74.1504 138.545 74.6309C137.432 75.1113 136.154 75.3516 134.713 75.3516C133.271 75.3516 131.988 75.1113 130.863 74.6309C129.75 74.1504 128.807 73.4766 128.033 72.6094C127.271 71.7305 126.691 70.7051 126.293 69.5332C125.895 68.3496 125.695 67.0664 125.695 65.6836ZM130.758 65.3145V65.6836C130.758 66.4805 130.828 67.2246 130.969 67.916C131.109 68.6074 131.332 69.2168 131.637 69.7441C131.953 70.2598 132.363 70.6641 132.867 70.957C133.371 71.25 133.986 71.3965 134.713 71.3965C135.416 71.3965 136.02 71.25 136.523 70.957C137.027 70.6641 137.432 70.2598 137.736 69.7441C138.041 69.2168 138.264 68.6074 138.404 67.916C138.557 67.2246 138.633 66.4805 138.633 65.6836V65.3145C138.633 64.541 138.557 63.8145 138.404 63.1348C138.264 62.4434 138.035 61.834 137.719 61.3066C137.414 60.7676 137.01 60.3457 136.506 60.041C136.002 59.7363 135.393 59.584 134.678 59.584C133.963 59.584 133.354 59.7363 132.85 60.041C132.357 60.3457 131.953 60.7676 131.637 61.3066C131.332 61.834 131.109 62.4434 130.969 63.1348C130.828 63.8145 130.758 64.541 130.758 65.3145ZM151.764 48V75H146.701V48H151.764ZM151.043 64.8223H149.654C149.666 63.498 149.842 62.2793 150.182 61.166C150.521 60.041 151.008 59.0684 151.641 58.248C152.273 57.416 153.029 56.7715 153.908 56.3145C154.799 55.8574 155.783 55.6289 156.861 55.6289C157.799 55.6289 158.648 55.7637 159.41 56.0332C160.184 56.291 160.846 56.7129 161.396 57.2988C161.959 57.873 162.393 58.6289 162.697 59.5664C163.002 60.5039 163.154 61.6406 163.154 62.9766V75H158.057V62.9414C158.057 62.0977 157.934 61.4355 157.688 60.9551C157.453 60.4629 157.107 60.1172 156.65 59.918C156.205 59.707 155.654 59.6016 154.998 59.6016C154.271 59.6016 153.65 59.7363 153.135 60.0059C152.631 60.2754 152.227 60.6504 151.922 61.1309C151.617 61.5996 151.395 62.1504 151.254 62.7832C151.113 63.416 151.043 64.0957 151.043 64.8223ZM177.27 70.7109V62.2383C177.27 61.6289 177.17 61.1074 176.971 60.6738C176.771 60.2285 176.461 59.8828 176.039 59.6367C175.629 59.3906 175.096 59.2676 174.439 59.2676C173.877 59.2676 173.391 59.3672 172.98 59.5664C172.57 59.7539 172.254 60.0293 172.031 60.3926C171.809 60.7441 171.697 61.1602 171.697 61.6406H166.635C166.635 60.832 166.822 60.0645 167.197 59.3379C167.572 58.6113 168.117 57.9727 168.832 57.4219C169.547 56.8594 170.396 56.4199 171.381 56.1035C172.377 55.7871 173.49 55.6289 174.721 55.6289C176.197 55.6289 177.51 55.875 178.658 56.3672C179.807 56.8594 180.709 57.5977 181.365 58.582C182.033 59.5664 182.367 60.7969 182.367 62.2734V70.4121C182.367 71.4551 182.432 72.3105 182.561 72.9785C182.689 73.6348 182.877 74.209 183.123 74.7012V75H178.008C177.762 74.4844 177.574 73.8398 177.445 73.0664C177.328 72.2812 177.27 71.4961 177.27 70.7109ZM177.938 63.416L177.973 66.2812H175.143C174.475 66.2812 173.895 66.3574 173.402 66.5098C172.91 66.6621 172.506 66.8789 172.189 67.1602C171.873 67.4297 171.639 67.7461 171.486 68.1094C171.346 68.4727 171.275 68.8711 171.275 69.3047C171.275 69.7383 171.375 70.1309 171.574 70.4824C171.773 70.8223 172.061 71.0918 172.436 71.291C172.811 71.4785 173.25 71.5723 173.754 71.5723C174.516 71.5723 175.178 71.4199 175.74 71.1152C176.303 70.8105 176.736 70.4355 177.041 69.9902C177.357 69.5449 177.521 69.123 177.533 68.7246L178.869 70.8691C178.682 71.3496 178.424 71.8477 178.096 72.3633C177.779 72.8789 177.375 73.3652 176.883 73.8223C176.391 74.2676 175.799 74.6367 175.107 74.9297C174.416 75.2109 173.596 75.3516 172.646 75.3516C171.439 75.3516 170.344 75.1113 169.359 74.6309C168.387 74.1387 167.613 73.4648 167.039 72.6094C166.477 71.7422 166.195 70.7578 166.195 69.6562C166.195 68.6602 166.383 67.7754 166.758 67.002C167.133 66.2285 167.684 65.5781 168.41 65.0508C169.148 64.5117 170.068 64.1074 171.17 63.8379C172.271 63.5566 173.549 63.416 175.002 63.416H177.938ZM191.332 59.918V75H186.252V55.9805H191.016L191.332 59.918ZM190.629 64.8223H189.223C189.223 63.498 189.381 62.2793 189.697 61.166C190.025 60.041 190.5 59.0684 191.121 58.248C191.754 57.416 192.533 56.7715 193.459 56.3145C194.385 55.8574 195.457 55.6289 196.676 55.6289C197.52 55.6289 198.293 55.7578 198.996 56.0156C199.699 56.2617 200.303 56.6543 200.807 57.1934C201.322 57.7207 201.721 58.4121 202.002 59.2676C202.283 60.1113 202.424 61.125 202.424 62.3086V75H197.361V62.8711C197.361 62.0039 197.244 61.3359 197.01 60.8672C196.775 60.3984 196.441 60.0703 196.008 59.8828C195.586 59.6953 195.076 59.6016 194.479 59.6016C193.822 59.6016 193.248 59.7363 192.756 60.0059C192.275 60.2754 191.877 60.6504 191.561 61.1309C191.244 61.5996 191.01 62.1504 190.857 62.7832C190.705 63.416 190.629 64.0957 190.629 64.8223ZM201.949 64.2422L200.139 64.4707C200.139 63.2285 200.291 62.0742 200.596 61.0078C200.912 59.9414 201.375 59.0039 201.984 58.1953C202.605 57.3867 203.373 56.7598 204.287 56.3145C205.201 55.8574 206.256 55.6289 207.451 55.6289C208.365 55.6289 209.197 55.7637 209.947 56.0332C210.697 56.291 211.336 56.707 211.863 57.2812C212.402 57.8438 212.812 58.582 213.094 59.4961C213.387 60.4102 213.533 61.5293 213.533 62.8535V75H208.453V62.8535C208.453 61.9746 208.336 61.3066 208.102 60.8496C207.879 60.3809 207.551 60.0586 207.117 59.8828C206.695 59.6953 206.191 59.6016 205.605 59.6016C204.996 59.6016 204.463 59.7246 204.006 59.9707C203.549 60.2051 203.168 60.5332 202.863 60.9551C202.559 61.377 202.33 61.8691 202.178 62.4316C202.025 62.9824 201.949 63.5859 201.949 64.2422ZM222.516 59.918V75H217.436V55.9805H222.199L222.516 59.918ZM221.812 64.8223H220.406C220.406 63.498 220.564 62.2793 220.881 61.166C221.209 60.041 221.684 59.0684 222.305 58.248C222.938 57.416 223.717 56.7715 224.643 56.3145C225.568 55.8574 226.641 55.6289 227.859 55.6289C228.703 55.6289 229.477 55.7578 230.18 56.0156C230.883 56.2617 231.486 56.6543 231.99 57.1934C232.506 57.7207 232.904 58.4121 233.186 59.2676C233.467 60.1113 233.607 61.125 233.607 62.3086V75H228.545V62.8711C228.545 62.0039 228.428 61.3359 228.193 60.8672C227.959 60.3984 227.625 60.0703 227.191 59.8828C226.77 59.6953 226.26 59.6016 225.662 59.6016C225.006 59.6016 224.432 59.7363 223.939 60.0059C223.459 60.2754 223.061 60.6504 222.744 61.1309C222.428 61.5996 222.193 62.1504 222.041 62.7832C221.889 63.416 221.812 64.0957 221.812 64.8223ZM233.133 64.2422L231.322 64.4707C231.322 63.2285 231.475 62.0742 231.779 61.0078C232.096 59.9414 232.559 59.0039 233.168 58.1953C233.789 57.3867 234.557 56.7598 235.471 56.3145C236.385 55.8574 237.439 55.6289 238.635 55.6289C239.549 55.6289 240.381 55.7637 241.131 56.0332C241.881 56.291 242.52 56.707 243.047 57.2812C243.586 57.8438 243.996 58.582 244.277 59.4961C244.57 60.4102 244.717 61.5293 244.717 62.8535V75H239.637V62.8535C239.637 61.9746 239.52 61.3066 239.285 60.8496C239.062 60.3809 238.734 60.0586 238.301 59.8828C237.879 59.6953 237.375 59.6016 236.789 59.6016C236.18 59.6016 235.646 59.7246 235.189 59.9707C234.732 60.2051 234.352 60.5332 234.047 60.9551C233.742 61.377 233.514 61.8691 233.361 62.4316C233.209 62.9824 233.133 63.5859 233.133 64.2422ZM258.902 70.7109V62.2383C258.902 61.6289 258.803 61.1074 258.604 60.6738C258.404 60.2285 258.094 59.8828 257.672 59.6367C257.262 59.3906 256.729 59.2676 256.072 59.2676C255.51 59.2676 255.023 59.3672 254.613 59.5664C254.203 59.7539 253.887 60.0293 253.664 60.3926C253.441 60.7441 253.33 61.1602 253.33 61.6406H248.268C248.268 60.832 248.455 60.0645 248.83 59.3379C249.205 58.6113 249.75 57.9727 250.465 57.4219C251.18 56.8594 252.029 56.4199 253.014 56.1035C254.01 55.7871 255.123 55.6289 256.354 55.6289C257.83 55.6289 259.143 55.875 260.291 56.3672C261.439 56.8594 262.342 57.5977 262.998 58.582C263.666 59.5664 264 60.7969 264 62.2734V70.4121C264 71.4551 264.064 72.3105 264.193 72.9785C264.322 73.6348 264.51 74.209 264.756 74.7012V75H259.641C259.395 74.4844 259.207 73.8398 259.078 73.0664C258.961 72.2812 258.902 71.4961 258.902 70.7109ZM259.57 63.416L259.605 66.2812H256.775C256.107 66.2812 255.527 66.3574 255.035 66.5098C254.543 66.6621 254.139 66.8789 253.822 67.1602C253.506 67.4297 253.271 67.7461 253.119 68.1094C252.979 68.4727 252.908 68.8711 252.908 69.3047C252.908 69.7383 253.008 70.1309 253.207 70.4824C253.406 70.8223 253.693 71.0918 254.068 71.291C254.443 71.4785 254.883 71.5723 255.387 71.5723C256.148 71.5723 256.811 71.4199 257.373 71.1152C257.936 70.8105 258.369 70.4355 258.674 69.9902C258.99 69.5449 259.154 69.123 259.166 68.7246L260.502 70.8691C260.314 71.3496 260.057 71.8477 259.729 72.3633C259.412 72.8789 259.008 73.3652 258.516 73.8223C258.023 74.2676 257.432 74.6367 256.74 74.9297C256.049 75.2109 255.229 75.3516 254.279 75.3516C253.072 75.3516 251.977 75.1113 250.992 74.6309C250.02 74.1387 249.246 73.4648 248.672 72.6094C248.109 71.7422 247.828 70.7578 247.828 69.6562C247.828 68.6602 248.016 67.7754 248.391 67.002C248.766 66.2285 249.316 65.5781 250.043 65.0508C250.781 64.5117 251.701 64.1074 252.803 63.8379C253.904 63.5566 255.182 63.416 256.635 63.416H259.57ZM279.135 70.8516V48H284.232V75H279.645L279.135 70.8516ZM267.111 65.7188V65.3496C267.111 63.8965 267.275 62.5781 267.604 61.3945C267.932 60.1992 268.412 59.1738 269.045 58.3184C269.678 57.4629 270.457 56.8008 271.383 56.332C272.309 55.8633 273.363 55.6289 274.547 55.6289C275.66 55.6289 276.633 55.8633 277.465 56.332C278.309 56.8008 279.023 57.4688 279.609 58.3359C280.207 59.1914 280.688 60.2051 281.051 61.377C281.414 62.5371 281.678 63.8086 281.842 65.1914V66C281.678 67.3242 281.414 68.5547 281.051 69.6914C280.688 70.8281 280.207 71.8242 279.609 72.6797C279.023 73.5234 278.309 74.1797 277.465 74.6484C276.621 75.1172 275.637 75.3516 274.512 75.3516C273.328 75.3516 272.273 75.1113 271.348 74.6309C270.434 74.1504 269.66 73.4766 269.027 72.6094C268.406 71.7422 267.932 70.7227 267.604 69.5508C267.275 68.3789 267.111 67.1016 267.111 65.7188ZM272.174 65.3496V65.7188C272.174 66.5039 272.232 67.2363 272.35 67.916C272.479 68.5957 272.684 69.1992 272.965 69.7266C273.258 70.2422 273.633 70.6465 274.09 70.9395C274.559 71.2207 275.127 71.3613 275.795 71.3613C276.662 71.3613 277.377 71.168 277.939 70.7812C278.502 70.3828 278.93 69.8379 279.223 69.1465C279.527 68.4551 279.703 67.6582 279.75 66.7559V64.4531C279.715 63.7148 279.609 63.0527 279.434 62.4668C279.27 61.8691 279.023 61.3594 278.695 60.9375C278.379 60.5156 277.98 60.1875 277.5 59.9531C277.031 59.7188 276.475 59.6016 275.83 59.6016C275.174 59.6016 274.611 59.7539 274.143 60.0586C273.674 60.3516 273.293 60.7559 273 61.2715C272.719 61.7871 272.508 62.3965 272.367 63.0996C272.238 63.791 272.174 64.541 272.174 65.3496ZM307.875 53.7832L300.914 75H295.307L304.816 49.4062H308.385L307.875 53.7832ZM313.658 75L306.68 53.7832L306.117 49.4062H309.721L319.283 75H313.658ZM313.342 65.4727V69.6035H299.824V65.4727H313.342ZM326.684 48V75H321.604V48H326.684ZM350.555 53.7832L343.594 75H337.986L347.496 49.4062H351.064L350.555 53.7832ZM356.338 75L349.359 53.7832L348.797 49.4062H352.4L361.963 75H356.338ZM356.021 65.4727V69.6035H342.504V65.4727H356.021ZM376.061 55.9805H380.648V74.3672C380.648 76.1016 380.262 77.5723 379.488 78.7793C378.727 79.998 377.66 80.918 376.289 81.5391C374.918 82.1719 373.324 82.4883 371.508 82.4883C370.711 82.4883 369.867 82.3828 368.977 82.1719C368.098 81.9609 367.254 81.6328 366.445 81.1875C365.648 80.7422 364.98 80.1797 364.441 79.5L366.674 76.5117C367.26 77.1914 367.939 77.7188 368.713 78.0938C369.486 78.4805 370.342 78.6738 371.279 78.6738C372.193 78.6738 372.967 78.5039 373.6 78.1641C374.232 77.8359 374.719 77.3496 375.059 76.7051C375.398 76.0723 375.568 75.3047 375.568 74.4023V60.375L376.061 55.9805ZM363.264 65.7188V65.3496C363.264 63.8965 363.439 62.5781 363.791 61.3945C364.154 60.1992 364.664 59.1738 365.32 58.3184C365.988 57.4629 366.797 56.8008 367.746 56.332C368.695 55.8633 369.768 55.6289 370.963 55.6289C372.229 55.6289 373.289 55.8633 374.145 56.332C375 56.8008 375.703 57.4688 376.254 58.3359C376.805 59.1914 377.232 60.2051 377.537 61.377C377.854 62.5371 378.1 63.8086 378.275 65.1914V66C378.1 67.3242 377.836 68.5547 377.484 69.6914C377.133 70.8281 376.67 71.8242 376.096 72.6797C375.521 73.5234 374.807 74.1797 373.951 74.6484C373.107 75.1172 372.1 75.3516 370.928 75.3516C369.756 75.3516 368.695 75.1113 367.746 74.6309C366.809 74.1504 366.006 73.4766 365.338 72.6094C364.67 71.7422 364.154 70.7227 363.791 69.5508C363.439 68.3789 363.264 67.1016 363.264 65.7188ZM368.326 65.3496V65.7188C368.326 66.5039 368.402 67.2363 368.555 67.916C368.707 68.5957 368.941 69.1992 369.258 69.7266C369.586 70.2422 369.99 70.6465 370.471 70.9395C370.963 71.2207 371.543 71.3613 372.211 71.3613C373.137 71.3613 373.893 71.168 374.479 70.7812C375.064 70.3828 375.504 69.8379 375.797 69.1465C376.09 68.4551 376.26 67.6582 376.307 66.7559V64.4531C376.283 63.7148 376.184 63.0527 376.008 62.4668C375.832 61.8691 375.586 61.3594 375.27 60.9375C374.953 60.5156 374.543 60.1875 374.039 59.9531C373.535 59.7188 372.938 59.6016 372.246 59.6016C371.578 59.6016 370.998 59.7539 370.506 60.0586C370.025 60.3516 369.621 60.7559 369.293 61.2715C368.977 61.7871 368.736 62.3965 368.572 63.0996C368.408 63.791 368.326 64.541 368.326 65.3496ZM389.525 48V75H384.463V48H389.525ZM388.805 64.8223H387.416C387.428 63.498 387.604 62.2793 387.943 61.166C388.283 60.041 388.77 59.0684 389.402 58.248C390.035 57.416 390.791 56.7715 391.67 56.3145C392.561 55.8574 393.545 55.6289 394.623 55.6289C395.561 55.6289 396.41 55.7637 397.172 56.0332C397.945 56.291 398.607 56.7129 399.158 57.2988C399.721 57.873 400.154 58.6289 400.459 59.5664C400.764 60.5039 400.916 61.6406 400.916 62.9766V75H395.818V62.9414C395.818 62.0977 395.695 61.4355 395.449 60.9551C395.215 60.4629 394.869 60.1172 394.412 59.918C393.967 59.707 393.416 59.6016 392.76 59.6016C392.033 59.6016 391.412 59.7363 390.896 60.0059C390.393 60.2754 389.988 60.6504 389.684 61.1309C389.379 61.5996 389.156 62.1504 389.016 62.7832C388.875 63.416 388.805 64.0957 388.805 64.8223ZM415.031 70.7109V62.2383C415.031 61.6289 414.932 61.1074 414.732 60.6738C414.533 60.2285 414.223 59.8828 413.801 59.6367C413.391 59.3906 412.857 59.2676 412.201 59.2676C411.639 59.2676 411.152 59.3672 410.742 59.5664C410.332 59.7539 410.016 60.0293 409.793 60.3926C409.57 60.7441 409.459 61.1602 409.459 61.6406H404.396C404.396 60.832 404.584 60.0645 404.959 59.3379C405.334 58.6113 405.879 57.9727 406.594 57.4219C407.309 56.8594 408.158 56.4199 409.143 56.1035C410.139 55.7871 411.252 55.6289 412.482 55.6289C413.959 55.6289 415.271 55.875 416.42 56.3672C417.568 56.8594 418.471 57.5977 419.127 58.582C419.795 59.5664 420.129 60.7969 420.129 62.2734V70.4121C420.129 71.4551 420.193 72.3105 420.322 72.9785C420.451 73.6348 420.639 74.209 420.885 74.7012V75H415.77C415.523 74.4844 415.336 73.8398 415.207 73.0664C415.09 72.2812 415.031 71.4961 415.031 70.7109ZM415.699 63.416L415.734 66.2812H412.904C412.236 66.2812 411.656 66.3574 411.164 66.5098C410.672 66.6621 410.268 66.8789 409.951 67.1602C409.635 67.4297 409.4 67.7461 409.248 68.1094C409.107 68.4727 409.037 68.8711 409.037 69.3047C409.037 69.7383 409.137 70.1309 409.336 70.4824C409.535 70.8223 409.822 71.0918 410.197 71.291C410.572 71.4785 411.012 71.5723 411.516 71.5723C412.277 71.5723 412.939 71.4199 413.502 71.1152C414.064 70.8105 414.498 70.4355 414.803 69.9902C415.119 69.5449 415.283 69.123 415.295 68.7246L416.631 70.8691C416.443 71.3496 416.186 71.8477 415.857 72.3633C415.541 72.8789 415.137 73.3652 414.645 73.8223C414.152 74.2676 413.561 74.6367 412.869 74.9297C412.178 75.2109 411.357 75.3516 410.408 75.3516C409.201 75.3516 408.105 75.1113 407.121 74.6309C406.148 74.1387 405.375 73.4648 404.801 72.6094C404.238 71.7422 403.957 70.7578 403.957 69.6562C403.957 68.6602 404.145 67.7754 404.52 67.002C404.895 66.2285 405.445 65.5781 406.172 65.0508C406.91 64.5117 407.83 64.1074 408.932 63.8379C410.033 63.5566 411.311 63.416 412.764 63.416H415.699Z" fill="#888888"/>
<path d="M122.34 132.617V140H102.215V132.617H122.34ZM105.633 100.188V140H96.0352V100.188H105.633ZM142.848 132.809V110.414H152.09V140H143.449L142.848 132.809ZM143.723 126.793L146.129 126.738C146.129 128.725 145.892 130.566 145.418 132.262C144.944 133.939 144.242 135.397 143.312 136.637C142.401 137.876 141.271 138.842 139.922 139.535C138.591 140.21 137.051 140.547 135.301 140.547C133.842 140.547 132.503 140.346 131.281 139.945C130.078 139.526 129.039 138.879 128.164 138.004C127.289 137.111 126.605 135.971 126.113 134.586C125.639 133.182 125.402 131.505 125.402 129.555V110.414H134.617V129.609C134.617 130.266 134.699 130.831 134.863 131.305C135.027 131.779 135.264 132.18 135.574 132.508C135.884 132.818 136.267 133.055 136.723 133.219C137.197 133.365 137.734 133.438 138.336 133.438C139.721 133.438 140.806 133.146 141.59 132.562C142.374 131.979 142.921 131.186 143.23 130.184C143.559 129.181 143.723 128.051 143.723 126.793ZM166.473 116.676V140H157.258V110.414H165.898L166.473 116.676ZM165.352 124.195L163.246 124.25C163.246 122.172 163.492 120.258 163.984 118.508C164.477 116.758 165.206 115.236 166.172 113.941C167.138 112.647 168.323 111.645 169.727 110.934C171.148 110.223 172.789 109.867 174.648 109.867C175.943 109.867 177.118 110.068 178.176 110.469C179.233 110.852 180.145 111.462 180.91 112.301C181.676 113.121 182.259 114.197 182.66 115.527C183.079 116.84 183.289 118.417 183.289 120.258V140H174.074V121.434C174.074 120.176 173.928 119.228 173.637 118.59C173.363 117.952 172.962 117.523 172.434 117.305C171.905 117.086 171.258 116.977 170.492 116.977C169.69 116.977 168.97 117.159 168.332 117.523C167.694 117.888 167.147 118.398 166.691 119.055C166.254 119.693 165.917 120.449 165.68 121.324C165.461 122.199 165.352 123.156 165.352 124.195ZM182.25 124.195L179.68 124.25C179.68 122.172 179.908 120.258 180.363 118.508C180.837 116.758 181.539 115.236 182.469 113.941C183.417 112.647 184.592 111.645 185.996 110.934C187.4 110.223 189.031 109.867 190.891 109.867C192.24 109.867 193.479 110.068 194.609 110.469C195.74 110.87 196.715 111.517 197.535 112.41C198.355 113.303 198.993 114.488 199.449 115.965C199.905 117.423 200.133 119.228 200.133 121.379V140H190.891V121.379C190.891 120.158 190.745 119.237 190.453 118.617C190.18 117.979 189.779 117.551 189.25 117.332C188.721 117.095 188.092 116.977 187.363 116.977C186.488 116.977 185.732 117.159 185.094 117.523C184.456 117.888 183.918 118.398 183.48 119.055C183.061 119.693 182.751 120.449 182.551 121.324C182.35 122.199 182.25 123.156 182.25 124.195ZM215.145 110.414V140H205.902V110.414H215.145ZM205.355 102.785C205.355 101.473 205.829 100.397 206.777 99.5586C207.725 98.7201 208.956 98.3008 210.469 98.3008C211.982 98.3008 213.212 98.7201 214.16 99.5586C215.108 100.397 215.582 101.473 215.582 102.785C215.582 104.098 215.108 105.173 214.16 106.012C213.212 106.85 211.982 107.27 210.469 107.27C208.956 107.27 207.725 106.85 206.777 106.012C205.829 105.173 205.355 104.098 205.355 102.785ZM229.883 116.73V140H220.668V110.414H229.309L229.883 116.73ZM228.789 124.195L226.629 124.25C226.629 121.99 226.902 119.975 227.449 118.207C227.996 116.421 228.771 114.908 229.773 113.668C230.776 112.428 231.97 111.49 233.355 110.852C234.759 110.195 236.318 109.867 238.031 109.867C239.398 109.867 240.647 110.068 241.777 110.469C242.926 110.87 243.91 111.517 244.73 112.41C245.569 113.303 246.207 114.488 246.645 115.965C247.1 117.423 247.328 119.228 247.328 121.379V140H238.059V121.352C238.059 120.167 237.895 119.264 237.566 118.645C237.238 118.007 236.764 117.569 236.145 117.332C235.525 117.095 234.768 116.977 233.875 116.977C232.927 116.977 232.125 117.159 231.469 117.523C230.812 117.888 230.284 118.398 229.883 119.055C229.5 119.693 229.217 120.449 229.035 121.324C228.871 122.199 228.789 123.156 228.789 124.195ZM266.77 140.547C264.363 140.547 262.212 140.173 260.316 139.426C258.421 138.66 256.816 137.612 255.504 136.281C254.21 134.951 253.216 133.419 252.523 131.688C251.849 129.956 251.512 128.124 251.512 126.191V125.152C251.512 122.983 251.812 120.978 252.414 119.137C253.016 117.277 253.909 115.655 255.094 114.27C256.279 112.884 257.764 111.809 259.551 111.043C261.337 110.259 263.415 109.867 265.785 109.867C267.882 109.867 269.759 110.204 271.418 110.879C273.077 111.553 274.48 112.52 275.629 113.777C276.796 115.035 277.68 116.557 278.281 118.344C278.901 120.13 279.211 122.135 279.211 124.359V128.105H255.039V122.336H270.215V121.625C270.233 120.641 270.06 119.802 269.695 119.109C269.349 118.417 268.839 117.888 268.164 117.523C267.49 117.159 266.669 116.977 265.703 116.977C264.701 116.977 263.871 117.195 263.215 117.633C262.577 118.07 262.076 118.672 261.711 119.438C261.365 120.185 261.118 121.051 260.973 122.035C260.827 123.02 260.754 124.059 260.754 125.152V126.191C260.754 127.285 260.9 128.279 261.191 129.172C261.501 130.065 261.939 130.831 262.504 131.469C263.087 132.089 263.78 132.572 264.582 132.918C265.402 133.264 266.332 133.438 267.371 133.438C268.629 133.438 269.868 133.201 271.09 132.727C272.311 132.253 273.359 131.469 274.234 130.375L278.418 135.352C277.816 136.208 276.96 137.038 275.848 137.84C274.754 138.642 273.441 139.298 271.91 139.809C270.379 140.301 268.665 140.547 266.77 140.547ZM290.777 110.414L294.934 118.562L299.227 110.414H308.797L301.031 124.824L309.207 140H299.555L294.934 131.25L290.34 140H280.688L288.863 124.824L281.125 110.414H290.777ZM327.199 132.562V120.367C327.199 119.529 327.081 118.809 326.844 118.207C326.607 117.605 326.233 117.141 325.723 116.812C325.212 116.466 324.529 116.293 323.672 116.293C322.979 116.293 322.387 116.411 321.895 116.648C321.402 116.885 321.029 117.241 320.773 117.715C320.518 118.189 320.391 118.79 320.391 119.52H311.176C311.176 118.152 311.477 116.885 312.078 115.719C312.698 114.534 313.573 113.504 314.703 112.629C315.852 111.754 317.219 111.079 318.805 110.605C320.409 110.113 322.195 109.867 324.164 109.867C326.516 109.867 328.612 110.259 330.453 111.043C332.312 111.827 333.78 113.003 334.855 114.57C335.931 116.12 336.469 118.07 336.469 120.422V132.535C336.469 134.467 336.578 135.935 336.797 136.938C337.016 137.922 337.326 138.788 337.727 139.535V140H328.484C328.047 139.089 327.719 137.977 327.5 136.664C327.299 135.333 327.199 133.966 327.199 132.562ZM328.32 121.926L328.375 126.848H324.301C323.444 126.848 322.715 126.966 322.113 127.203C321.53 127.44 321.056 127.768 320.691 128.188C320.345 128.589 320.09 129.044 319.926 129.555C319.78 130.065 319.707 130.603 319.707 131.168C319.707 131.715 319.835 132.207 320.09 132.645C320.363 133.064 320.728 133.392 321.184 133.629C321.639 133.866 322.15 133.984 322.715 133.984C323.736 133.984 324.602 133.793 325.312 133.41C326.042 133.009 326.598 132.526 326.98 131.961C327.363 131.396 327.555 130.867 327.555 130.375L329.578 134.148C329.214 134.878 328.794 135.616 328.32 136.363C327.865 137.111 327.29 137.803 326.598 138.441C325.923 139.061 325.094 139.572 324.109 139.973C323.125 140.355 321.931 140.547 320.527 140.547C318.704 140.547 317.027 140.173 315.496 139.426C313.983 138.678 312.771 137.639 311.859 136.309C310.948 134.96 310.492 133.41 310.492 131.66C310.492 130.129 310.766 128.762 311.312 127.559C311.878 126.355 312.725 125.335 313.855 124.496C314.986 123.658 316.426 123.02 318.176 122.582C319.926 122.145 321.986 121.926 324.355 121.926H328.32Z" fill="black"/>
<rect x="93" y="178" width="917" height="77" rx="10" fill="#D3D3D3"/>
<rect x="111" y="196" width="98" height="41" rx="3" fill="#424242"/>
<path d="M137.078 210.203V223H133.993V210.203H137.078ZM142.053 215.529V217.902H136.199V215.529H142.053ZM142.554 210.203V212.585H136.199V210.203H142.554ZM146.825 209.5V223H143.854V209.5H146.825ZM154.208 220.688V213.49H157.179V223H154.401L154.208 220.688ZM154.489 218.755L155.263 218.737C155.263 219.376 155.187 219.968 155.034 220.513C154.882 221.052 154.656 221.521 154.357 221.919C154.064 222.317 153.701 222.628 153.268 222.851C152.84 223.067 152.345 223.176 151.782 223.176C151.313 223.176 150.883 223.111 150.49 222.982C150.104 222.848 149.77 222.64 149.488 222.358C149.207 222.071 148.987 221.705 148.829 221.26C148.677 220.809 148.601 220.27 148.601 219.643V213.49H151.562V219.66C151.562 219.871 151.589 220.053 151.642 220.205C151.694 220.357 151.771 220.486 151.87 220.592C151.97 220.691 152.093 220.768 152.239 220.82C152.392 220.867 152.564 220.891 152.758 220.891C153.203 220.891 153.552 220.797 153.804 220.609C154.056 220.422 154.231 220.167 154.331 219.845C154.437 219.522 154.489 219.159 154.489 218.755ZM163.823 213.49V215.547H158.093V213.49H163.823ZM159.297 211.126H162.259V219.897C162.259 220.149 162.288 220.346 162.347 220.486C162.405 220.621 162.505 220.718 162.646 220.776C162.792 220.829 162.985 220.855 163.226 220.855C163.396 220.855 163.536 220.853 163.647 220.847C163.759 220.835 163.864 220.82 163.964 220.803V222.921C163.712 223.003 163.448 223.064 163.173 223.105C162.897 223.152 162.604 223.176 162.294 223.176C161.661 223.176 161.119 223.076 160.668 222.877C160.223 222.678 159.883 222.364 159.648 221.937C159.414 221.509 159.297 220.952 159.297 220.267V211.126ZM170.011 213.49V215.547H164.28V213.49H170.011ZM165.484 211.126H168.446V219.897C168.446 220.149 168.476 220.346 168.534 220.486C168.593 220.621 168.692 220.718 168.833 220.776C168.979 220.829 169.173 220.855 169.413 220.855C169.583 220.855 169.724 220.853 169.835 220.847C169.946 220.835 170.052 220.82 170.151 220.803V222.921C169.899 223.003 169.636 223.064 169.36 223.105C169.085 223.152 168.792 223.176 168.481 223.176C167.849 223.176 167.307 223.076 166.855 222.877C166.41 222.678 166.07 222.364 165.836 221.937C165.602 221.509 165.484 220.952 165.484 220.267V211.126ZM175.794 223.176C175.021 223.176 174.329 223.056 173.72 222.815C173.11 222.569 172.595 222.232 172.173 221.805C171.757 221.377 171.438 220.885 171.215 220.328C170.998 219.771 170.89 219.183 170.89 218.562V218.228C170.89 217.53 170.986 216.886 171.18 216.294C171.373 215.696 171.66 215.175 172.041 214.729C172.422 214.284 172.899 213.938 173.474 213.692C174.048 213.44 174.716 213.314 175.478 213.314C176.151 213.314 176.755 213.423 177.288 213.64C177.821 213.856 178.272 214.167 178.642 214.571C179.017 214.976 179.301 215.465 179.494 216.039C179.693 216.613 179.793 217.258 179.793 217.973V219.177H172.023V217.322H176.901V217.094C176.907 216.777 176.852 216.508 176.734 216.285C176.623 216.062 176.459 215.893 176.242 215.775C176.025 215.658 175.762 215.6 175.451 215.6C175.129 215.6 174.862 215.67 174.651 215.811C174.446 215.951 174.285 216.145 174.168 216.391C174.057 216.631 173.978 216.909 173.931 217.226C173.884 217.542 173.86 217.876 173.86 218.228V218.562C173.86 218.913 173.907 219.232 174.001 219.52C174.101 219.807 174.241 220.053 174.423 220.258C174.61 220.457 174.833 220.612 175.091 220.724C175.354 220.835 175.653 220.891 175.987 220.891C176.392 220.891 176.79 220.814 177.183 220.662C177.575 220.51 177.912 220.258 178.193 219.906L179.538 221.506C179.345 221.781 179.069 222.048 178.712 222.306C178.36 222.563 177.938 222.774 177.446 222.938C176.954 223.097 176.403 223.176 175.794 223.176ZM183.985 215.846V223H181.023V213.49H183.792L183.985 215.846ZM186.798 213.42L186.745 216.171C186.628 216.159 186.47 216.145 186.271 216.127C186.071 216.109 185.904 216.101 185.77 216.101C185.424 216.101 185.125 216.142 184.873 216.224C184.627 216.3 184.422 216.417 184.258 216.575C184.1 216.728 183.982 216.921 183.906 217.155C183.836 217.39 183.804 217.662 183.81 217.973L183.273 217.621C183.273 216.982 183.335 216.402 183.458 215.881C183.587 215.354 183.769 214.899 184.003 214.519C184.237 214.132 184.521 213.836 184.855 213.631C185.189 213.42 185.564 213.314 185.98 213.314C186.127 213.314 186.271 213.323 186.411 213.341C186.558 213.358 186.687 213.385 186.798 213.42Z" fill="white"/>
<rect x="111" y="196" width="98" height="41" rx="3" stroke="#424242" stroke-width="4"/>
<rect x="229" y="196" width="130" height="41" rx="3" fill="#424242"/>
<path d="M260.883 220.627V223H254.062V220.627H260.883ZM255.161 210.203V223H252.076V210.203H255.161ZM260.004 215.283V217.577H254.062V215.283H260.004ZM260.909 210.203V212.585H254.062V210.203H260.909ZM264.521 213.49L265.857 216.109L267.237 213.49H270.313L267.817 218.122L270.445 223H267.343L265.857 220.188L264.381 223H261.278L263.906 218.122L261.419 213.49H264.521ZM274.277 215.318V226.656H271.315V213.49H274.075L274.277 215.318ZM280.113 218.131V218.315C280.113 219.007 280.034 219.648 279.876 220.24C279.718 220.832 279.483 221.348 279.173 221.787C278.862 222.227 278.476 222.569 278.013 222.815C277.556 223.056 277.025 223.176 276.422 223.176C275.854 223.176 275.364 223.05 274.954 222.798C274.544 222.546 274.201 222.197 273.926 221.752C273.65 221.307 273.428 220.797 273.258 220.223C273.088 219.648 272.953 219.042 272.854 218.403V218.166C272.953 217.48 273.088 216.845 273.258 216.259C273.428 215.667 273.65 215.151 273.926 214.712C274.201 214.272 274.541 213.93 274.945 213.684C275.355 213.438 275.845 213.314 276.413 213.314C277.017 213.314 277.547 213.429 278.004 213.657C278.467 213.886 278.854 214.214 279.164 214.642C279.48 215.063 279.718 215.57 279.876 216.162C280.034 216.754 280.113 217.41 280.113 218.131ZM277.151 218.315V218.131C277.151 217.762 277.125 217.425 277.072 217.12C277.02 216.81 276.935 216.54 276.817 216.312C276.706 216.083 276.557 215.907 276.369 215.784C276.182 215.661 275.95 215.6 275.675 215.6C275.358 215.6 275.092 215.649 274.875 215.749C274.664 215.843 274.494 215.989 274.365 216.188C274.242 216.382 274.154 216.625 274.102 216.918C274.055 217.205 274.034 217.542 274.04 217.929V218.649C274.028 219.095 274.072 219.487 274.172 219.827C274.271 220.161 274.444 220.422 274.69 220.609C274.937 220.797 275.271 220.891 275.692 220.891C275.974 220.891 276.208 220.826 276.396 220.697C276.583 220.562 276.732 220.378 276.844 220.144C276.955 219.903 277.034 219.628 277.081 219.317C277.128 219.007 277.151 218.673 277.151 218.315ZM284.42 215.846V223H281.458V213.49H284.227L284.42 215.846ZM287.232 213.42L287.18 216.171C287.062 216.159 286.904 216.145 286.705 216.127C286.506 216.109 286.339 216.101 286.204 216.101C285.858 216.101 285.56 216.142 285.308 216.224C285.062 216.3 284.856 216.417 284.692 216.575C284.534 216.728 284.417 216.921 284.341 217.155C284.271 217.39 284.238 217.662 284.244 217.973L283.708 217.621C283.708 216.982 283.77 216.402 283.893 215.881C284.021 215.354 284.203 214.899 284.438 214.519C284.672 214.132 284.956 213.836 285.29 213.631C285.624 213.42 285.999 213.314 286.415 213.314C286.562 213.314 286.705 213.323 286.846 213.341C286.992 213.358 287.121 213.385 287.232 213.42ZM292.682 223.176C291.908 223.176 291.217 223.056 290.607 222.815C289.998 222.569 289.482 222.232 289.061 221.805C288.645 221.377 288.325 220.885 288.103 220.328C287.886 219.771 287.777 219.183 287.777 218.562V218.228C287.777 217.53 287.874 216.886 288.067 216.294C288.261 215.696 288.548 215.175 288.929 214.729C289.31 214.284 289.787 213.938 290.361 213.692C290.936 213.44 291.604 213.314 292.365 213.314C293.039 213.314 293.643 213.423 294.176 213.64C294.709 213.856 295.16 214.167 295.529 214.571C295.904 214.976 296.188 215.465 296.382 216.039C296.581 216.613 296.681 217.258 296.681 217.973V219.177H288.911V217.322H293.789V217.094C293.795 216.777 293.739 216.508 293.622 216.285C293.511 216.062 293.347 215.893 293.13 215.775C292.913 215.658 292.649 215.6 292.339 215.6C292.017 215.6 291.75 215.67 291.539 215.811C291.334 215.951 291.173 216.145 291.056 216.391C290.944 216.631 290.865 216.909 290.818 217.226C290.771 217.542 290.748 217.876 290.748 218.228V218.562C290.748 218.913 290.795 219.232 290.889 219.52C290.988 219.807 291.129 220.053 291.311 220.258C291.498 220.457 291.721 220.612 291.979 220.724C292.242 220.835 292.541 220.891 292.875 220.891C293.279 220.891 293.678 220.814 294.07 220.662C294.463 220.51 294.8 220.258 295.081 219.906L296.426 221.506C296.232 221.781 295.957 222.048 295.6 222.306C295.248 222.563 294.826 222.774 294.334 222.938C293.842 223.097 293.291 223.176 292.682 223.176ZM302.868 220.328C302.868 220.164 302.812 220.023 302.701 219.906C302.596 219.783 302.408 219.672 302.139 219.572C301.869 219.467 301.491 219.361 301.005 219.256C300.542 219.156 300.105 219.024 299.695 218.86C299.291 218.696 298.937 218.497 298.632 218.263C298.327 218.028 298.087 217.75 297.911 217.428C297.741 217.105 297.656 216.736 297.656 216.32C297.656 215.916 297.741 215.535 297.911 215.178C298.087 214.814 298.342 214.495 298.676 214.22C299.016 213.938 299.429 213.719 299.915 213.561C300.401 213.396 300.955 213.314 301.576 213.314C302.432 213.314 303.17 213.446 303.791 213.71C304.412 213.968 304.89 214.331 305.224 214.8C305.563 215.263 305.733 215.799 305.733 216.408H302.771C302.771 216.168 302.73 215.963 302.648 215.793C302.572 215.623 302.446 215.494 302.271 215.406C302.095 215.312 301.86 215.266 301.567 215.266C301.362 215.266 301.175 215.304 301.005 215.38C300.841 215.456 300.709 215.562 300.609 215.696C300.51 215.831 300.46 215.989 300.46 216.171C300.46 216.3 300.489 216.417 300.548 216.522C300.612 216.622 300.709 216.716 300.838 216.804C300.967 216.886 301.131 216.962 301.33 217.032C301.529 217.097 301.77 217.155 302.051 217.208C302.689 217.325 303.287 217.492 303.844 217.709C304.4 217.926 304.852 218.233 305.197 218.632C305.549 219.03 305.725 219.566 305.725 220.24C305.725 220.662 305.628 221.052 305.435 221.409C305.241 221.761 304.963 222.071 304.6 222.341C304.236 222.604 303.8 222.81 303.29 222.956C302.78 223.103 302.206 223.176 301.567 223.176C300.659 223.176 299.892 223.015 299.265 222.692C298.638 222.364 298.163 221.954 297.841 221.462C297.524 220.964 297.366 220.46 297.366 219.95H300.126C300.138 220.243 300.208 220.483 300.337 220.671C300.472 220.858 300.65 220.996 300.873 221.084C301.096 221.172 301.354 221.216 301.646 221.216C301.916 221.216 302.139 221.178 302.314 221.102C302.496 221.025 302.634 220.923 302.728 220.794C302.821 220.659 302.868 220.504 302.868 220.328ZM312.097 220.328C312.097 220.164 312.041 220.023 311.93 219.906C311.824 219.783 311.637 219.672 311.367 219.572C311.098 219.467 310.72 219.361 310.233 219.256C309.771 219.156 309.334 219.024 308.924 218.86C308.52 218.696 308.165 218.497 307.86 218.263C307.556 218.028 307.315 217.75 307.14 217.428C306.97 217.105 306.885 216.736 306.885 216.32C306.885 215.916 306.97 215.535 307.14 215.178C307.315 214.814 307.57 214.495 307.904 214.22C308.244 213.938 308.657 213.719 309.144 213.561C309.63 213.396 310.184 213.314 310.805 213.314C311.66 213.314 312.398 213.446 313.02 213.71C313.641 213.968 314.118 214.331 314.452 214.8C314.792 215.263 314.962 215.799 314.962 216.408H312C312 216.168 311.959 215.963 311.877 215.793C311.801 215.623 311.675 215.494 311.499 215.406C311.323 215.312 311.089 215.266 310.796 215.266C310.591 215.266 310.403 215.304 310.233 215.38C310.069 215.456 309.938 215.562 309.838 215.696C309.738 215.831 309.688 215.989 309.688 216.171C309.688 216.3 309.718 216.417 309.776 216.522C309.841 216.622 309.938 216.716 310.066 216.804C310.195 216.886 310.359 216.962 310.559 217.032C310.758 217.097 310.998 217.155 311.279 217.208C311.918 217.325 312.516 217.492 313.072 217.709C313.629 217.926 314.08 218.233 314.426 218.632C314.777 219.03 314.953 219.566 314.953 220.24C314.953 220.662 314.856 221.052 314.663 221.409C314.47 221.761 314.191 222.071 313.828 222.341C313.465 222.604 313.028 222.81 312.519 222.956C312.009 223.103 311.435 223.176 310.796 223.176C309.888 223.176 309.12 223.015 308.493 222.692C307.866 222.364 307.392 221.954 307.069 221.462C306.753 220.964 306.595 220.46 306.595 219.95H309.354C309.366 220.243 309.437 220.483 309.565 220.671C309.7 220.858 309.879 220.996 310.102 221.084C310.324 221.172 310.582 221.216 310.875 221.216C311.145 221.216 311.367 221.178 311.543 221.102C311.725 221.025 311.862 220.923 311.956 220.794C312.05 220.659 312.097 220.504 312.097 220.328ZM321.571 218.983V210.203H324.647V218.983C324.647 219.839 324.451 220.58 324.059 221.207C323.672 221.834 323.145 222.32 322.477 222.666C321.814 223.006 321.07 223.176 320.244 223.176C319.389 223.176 318.627 223.032 317.959 222.745C317.297 222.458 316.775 222.016 316.395 221.418C316.02 220.82 315.832 220.059 315.832 219.133H318.926C318.926 219.566 318.976 219.906 319.075 220.152C319.175 220.393 319.321 220.562 319.515 220.662C319.714 220.756 319.957 220.803 320.244 220.803C320.525 220.803 320.763 220.732 320.956 220.592C321.155 220.445 321.308 220.237 321.413 219.968C321.519 219.692 321.571 219.364 321.571 218.983ZM333.199 219.599C333.199 219.399 333.17 219.221 333.111 219.062C333.053 218.898 332.944 218.746 332.786 218.605C332.628 218.465 332.399 218.324 332.101 218.184C331.808 218.037 331.421 217.885 330.94 217.727C330.378 217.539 329.836 217.328 329.314 217.094C328.793 216.854 328.327 216.575 327.917 216.259C327.507 215.937 327.182 215.562 326.941 215.134C326.701 214.7 326.581 214.196 326.581 213.622C326.581 213.071 326.704 212.576 326.95 212.137C327.196 211.691 327.539 211.313 327.979 211.003C328.424 210.687 328.945 210.446 329.543 210.282C330.141 210.112 330.794 210.027 331.503 210.027C332.44 210.027 333.267 210.191 333.981 210.52C334.702 210.842 335.265 211.302 335.669 211.899C336.079 212.491 336.284 213.191 336.284 214H333.217C333.217 213.678 333.149 213.394 333.015 213.147C332.886 212.901 332.689 212.708 332.426 212.567C332.162 212.427 331.831 212.356 331.433 212.356C331.046 212.356 330.721 212.415 330.457 212.532C330.193 212.649 329.994 212.808 329.859 213.007C329.725 213.2 329.657 213.414 329.657 213.648C329.657 213.842 329.71 214.018 329.815 214.176C329.927 214.328 330.082 214.472 330.281 214.606C330.486 214.741 330.732 214.87 331.02 214.993C331.312 215.116 331.641 215.236 332.004 215.354C332.684 215.57 333.287 215.813 333.814 216.083C334.348 216.347 334.796 216.648 335.159 216.988C335.528 217.322 335.807 217.703 335.994 218.131C336.188 218.559 336.284 219.042 336.284 219.581C336.284 220.155 336.173 220.665 335.95 221.11C335.728 221.556 335.408 221.934 334.992 222.244C334.576 222.549 334.078 222.78 333.498 222.938C332.918 223.097 332.271 223.176 331.556 223.176C330.899 223.176 330.252 223.094 329.613 222.93C328.98 222.76 328.406 222.502 327.891 222.156C327.375 221.805 326.962 221.356 326.651 220.812C326.347 220.261 326.194 219.607 326.194 218.852H329.288C329.288 219.227 329.338 219.543 329.438 219.801C329.537 220.059 329.684 220.267 329.877 220.425C330.07 220.577 330.308 220.688 330.589 220.759C330.87 220.823 331.192 220.855 331.556 220.855C331.948 220.855 332.265 220.8 332.505 220.688C332.745 220.571 332.921 220.419 333.032 220.231C333.144 220.038 333.199 219.827 333.199 219.599Z" fill="white"/>
<rect x="229" y="196" width="130" height="41" rx="3" stroke="#424242" stroke-width="4"/>
<rect x="379" y="196" width="109" height="41" rx="3" fill="#424242"/>
<path d="M413.118 210.203V223H410.042L405.516 215.037V223H402.431V210.203H405.516L410.042 218.166V210.203H413.118ZM414.56 218.342V218.157C414.56 217.46 414.659 216.818 414.858 216.232C415.058 215.641 415.351 215.128 415.737 214.694C416.124 214.261 416.602 213.924 417.17 213.684C417.738 213.438 418.395 213.314 419.139 213.314C419.889 213.314 420.548 213.438 421.116 213.684C421.69 213.924 422.171 214.261 422.558 214.694C422.944 215.128 423.237 215.641 423.437 216.232C423.636 216.818 423.735 217.46 423.735 218.157V218.342C423.735 219.033 423.636 219.675 423.437 220.267C423.237 220.853 422.944 221.365 422.558 221.805C422.171 222.238 421.693 222.575 421.125 222.815C420.557 223.056 419.9 223.176 419.156 223.176C418.412 223.176 417.753 223.056 417.179 222.815C416.604 222.575 416.124 222.238 415.737 221.805C415.351 221.365 415.058 220.853 414.858 220.267C414.659 219.675 414.56 219.033 414.56 218.342ZM417.521 218.157V218.342C417.521 218.699 417.548 219.033 417.601 219.344C417.653 219.654 417.741 219.927 417.864 220.161C417.987 220.39 418.154 220.568 418.365 220.697C418.576 220.826 418.84 220.891 419.156 220.891C419.467 220.891 419.725 220.826 419.93 220.697C420.141 220.568 420.308 220.39 420.431 220.161C420.554 219.927 420.642 219.654 420.694 219.344C420.747 219.033 420.773 218.699 420.773 218.342V218.157C420.773 217.812 420.747 217.486 420.694 217.182C420.642 216.871 420.554 216.599 420.431 216.364C420.308 216.124 420.141 215.937 419.93 215.802C419.719 215.667 419.455 215.6 419.139 215.6C418.828 215.6 418.567 215.667 418.356 215.802C418.151 215.937 417.987 216.124 417.864 216.364C417.741 216.599 417.653 216.871 417.601 217.182C417.548 217.486 417.521 217.812 417.521 218.157ZM430.521 220.82V209.5H433.5V223H430.828L430.521 220.82ZM424.685 218.359V218.175C424.685 217.454 424.764 216.798 424.922 216.206C425.08 215.608 425.314 215.096 425.625 214.668C425.936 214.234 426.322 213.9 426.785 213.666C427.248 213.432 427.781 213.314 428.385 213.314C428.924 213.314 429.396 213.44 429.8 213.692C430.204 213.938 430.55 214.284 430.837 214.729C431.124 215.175 431.358 215.696 431.54 216.294C431.722 216.886 431.859 217.524 431.953 218.21V218.43C431.859 219.074 431.722 219.684 431.54 220.258C431.358 220.826 431.124 221.33 430.837 221.77C430.55 222.209 430.201 222.555 429.791 222.807C429.387 223.053 428.912 223.176 428.367 223.176C427.764 223.176 427.23 223.056 426.768 222.815C426.311 222.575 425.927 222.238 425.616 221.805C425.312 221.371 425.08 220.861 424.922 220.275C424.764 219.689 424.685 219.051 424.685 218.359ZM427.646 218.175V218.359C427.646 218.717 427.67 219.048 427.717 219.353C427.764 219.657 427.843 219.927 427.954 220.161C428.071 220.39 428.224 220.568 428.411 220.697C428.604 220.826 428.842 220.891 429.123 220.891C429.504 220.891 429.817 220.8 430.063 220.618C430.315 220.437 430.5 220.179 430.617 219.845C430.74 219.511 430.793 219.118 430.775 218.667V217.973C430.787 217.586 430.761 217.246 430.696 216.953C430.632 216.654 430.529 216.405 430.389 216.206C430.254 216.007 430.081 215.857 429.87 215.758C429.665 215.652 429.422 215.6 429.141 215.6C428.865 215.6 428.631 215.664 428.438 215.793C428.25 215.922 428.098 216.104 427.98 216.338C427.863 216.566 427.778 216.839 427.726 217.155C427.673 217.466 427.646 217.806 427.646 218.175ZM439.784 223.176C439.011 223.176 438.319 223.056 437.71 222.815C437.101 222.569 436.585 222.232 436.163 221.805C435.747 221.377 435.428 220.885 435.205 220.328C434.988 219.771 434.88 219.183 434.88 218.562V218.228C434.88 217.53 434.977 216.886 435.17 216.294C435.363 215.696 435.65 215.175 436.031 214.729C436.412 214.284 436.89 213.938 437.464 213.692C438.038 213.44 438.706 213.314 439.468 213.314C440.142 213.314 440.745 213.423 441.278 213.64C441.812 213.856 442.263 214.167 442.632 214.571C443.007 214.976 443.291 215.465 443.484 216.039C443.684 216.613 443.783 217.258 443.783 217.973V219.177H436.014V217.322H440.892V217.094C440.897 216.777 440.842 216.508 440.725 216.285C440.613 216.062 440.449 215.893 440.232 215.775C440.016 215.658 439.752 215.6 439.441 215.6C439.119 215.6 438.853 215.67 438.642 215.811C438.437 215.951 438.275 216.145 438.158 216.391C438.047 216.631 437.968 216.909 437.921 217.226C437.874 217.542 437.851 217.876 437.851 218.228V218.562C437.851 218.913 437.897 219.232 437.991 219.52C438.091 219.807 438.231 220.053 438.413 220.258C438.601 220.457 438.823 220.612 439.081 220.724C439.345 220.835 439.644 220.891 439.978 220.891C440.382 220.891 440.78 220.814 441.173 220.662C441.565 220.51 441.902 220.258 442.184 219.906L443.528 221.506C443.335 221.781 443.06 222.048 442.702 222.306C442.351 222.563 441.929 222.774 441.437 222.938C440.944 223.097 440.394 223.176 439.784 223.176ZM450.217 218.983V210.203H453.293V218.983C453.293 219.839 453.097 220.58 452.704 221.207C452.317 221.834 451.79 222.32 451.122 222.666C450.46 223.006 449.716 223.176 448.89 223.176C448.034 223.176 447.272 223.032 446.604 222.745C445.942 222.458 445.421 222.016 445.04 221.418C444.665 220.82 444.478 220.059 444.478 219.133H447.571C447.571 219.566 447.621 219.906 447.721 220.152C447.82 220.393 447.967 220.562 448.16 220.662C448.359 220.756 448.603 220.803 448.89 220.803C449.171 220.803 449.408 220.732 449.602 220.592C449.801 220.445 449.953 220.237 450.059 219.968C450.164 219.692 450.217 219.364 450.217 218.983ZM461.845 219.599C461.845 219.399 461.815 219.221 461.757 219.062C461.698 218.898 461.59 218.746 461.432 218.605C461.273 218.465 461.045 218.324 460.746 218.184C460.453 218.037 460.066 217.885 459.586 217.727C459.023 217.539 458.481 217.328 457.96 217.094C457.438 216.854 456.973 216.575 456.562 216.259C456.152 215.937 455.827 215.562 455.587 215.134C455.347 214.7 455.227 214.196 455.227 213.622C455.227 213.071 455.35 212.576 455.596 212.137C455.842 211.691 456.185 211.313 456.624 211.003C457.069 210.687 457.591 210.446 458.188 210.282C458.786 210.112 459.439 210.027 460.148 210.027C461.086 210.027 461.912 210.191 462.627 210.52C463.348 210.842 463.91 211.302 464.314 211.899C464.725 212.491 464.93 213.191 464.93 214H461.862C461.862 213.678 461.795 213.394 461.66 213.147C461.531 212.901 461.335 212.708 461.071 212.567C460.808 212.427 460.477 212.356 460.078 212.356C459.691 212.356 459.366 212.415 459.103 212.532C458.839 212.649 458.64 212.808 458.505 213.007C458.37 213.2 458.303 213.414 458.303 213.648C458.303 213.842 458.355 214.018 458.461 214.176C458.572 214.328 458.728 214.472 458.927 214.606C459.132 214.741 459.378 214.87 459.665 214.993C459.958 215.116 460.286 215.236 460.649 215.354C461.329 215.57 461.933 215.813 462.46 216.083C462.993 216.347 463.441 216.648 463.805 216.988C464.174 217.322 464.452 217.703 464.64 218.131C464.833 218.559 464.93 219.042 464.93 219.581C464.93 220.155 464.818 220.665 464.596 221.11C464.373 221.556 464.054 221.934 463.638 222.244C463.222 222.549 462.724 222.78 462.144 222.938C461.563 223.097 460.916 223.176 460.201 223.176C459.545 223.176 458.897 223.094 458.259 222.93C457.626 222.76 457.052 222.502 456.536 222.156C456.021 221.805 455.607 221.356 455.297 220.812C454.992 220.261 454.84 219.607 454.84 218.852H457.934C457.934 219.227 457.983 219.543 458.083 219.801C458.183 220.059 458.329 220.267 458.522 220.425C458.716 220.577 458.953 220.688 459.234 220.759C459.516 220.823 459.838 220.855 460.201 220.855C460.594 220.855 460.91 220.8 461.15 220.688C461.391 220.571 461.566 220.419 461.678 220.231C461.789 220.038 461.845 219.827 461.845 219.599Z" fill="white"/>
<rect x="379" y="196" width="109" height="41" rx="3" stroke="#424242" stroke-width="4"/>
<rect x="508" y="196" width="109" height="41" rx="3" fill="#424242"/>
<path d="M536.678 212.893L533.558 223H530.244L534.946 210.203H537.047L536.678 212.893ZM539.262 223L536.133 212.893L535.729 210.203H537.855L542.584 223H539.262ZM539.139 218.228V220.609H532.573V218.228H539.139ZM546.372 215.846V223H543.41V213.49H546.179L546.372 215.846ZM549.185 213.42L549.132 216.171C549.015 216.159 548.856 216.145 548.657 216.127C548.458 216.109 548.291 216.101 548.156 216.101C547.811 216.101 547.512 216.142 547.26 216.224C547.014 216.3 546.809 216.417 546.645 216.575C546.486 216.728 546.369 216.921 546.293 217.155C546.223 217.39 546.19 217.662 546.196 217.973L545.66 217.621C545.66 216.982 545.722 216.402 545.845 215.881C545.974 215.354 546.155 214.899 546.39 214.519C546.624 214.132 546.908 213.836 547.242 213.631C547.576 213.42 547.951 213.314 548.367 213.314C548.514 213.314 548.657 213.323 548.798 213.341C548.944 213.358 549.073 213.385 549.185 213.42ZM555.495 220.82V209.5H558.475V223H555.803L555.495 220.82ZM549.659 218.359V218.175C549.659 217.454 549.738 216.798 549.896 216.206C550.055 215.608 550.289 215.096 550.6 214.668C550.91 214.234 551.297 213.9 551.76 213.666C552.223 213.432 552.756 213.314 553.359 213.314C553.898 213.314 554.37 213.44 554.774 213.692C555.179 213.938 555.524 214.284 555.812 214.729C556.099 215.175 556.333 215.696 556.515 216.294C556.696 216.886 556.834 217.524 556.928 218.21V218.43C556.834 219.074 556.696 219.684 556.515 220.258C556.333 220.826 556.099 221.33 555.812 221.77C555.524 222.209 555.176 222.555 554.766 222.807C554.361 223.053 553.887 223.176 553.342 223.176C552.738 223.176 552.205 223.056 551.742 222.815C551.285 222.575 550.901 222.238 550.591 221.805C550.286 221.371 550.055 220.861 549.896 220.275C549.738 219.689 549.659 219.051 549.659 218.359ZM552.621 218.175V218.359C552.621 218.717 552.645 219.048 552.691 219.353C552.738 219.657 552.817 219.927 552.929 220.161C553.046 220.39 553.198 220.568 553.386 220.697C553.579 220.826 553.816 220.891 554.098 220.891C554.479 220.891 554.792 220.8 555.038 220.618C555.29 220.437 555.475 220.179 555.592 219.845C555.715 219.511 555.768 219.118 555.75 218.667V217.973C555.762 217.586 555.735 217.246 555.671 216.953C555.606 216.654 555.504 216.405 555.363 216.206C555.229 216.007 555.056 215.857 554.845 215.758C554.64 215.652 554.396 215.6 554.115 215.6C553.84 215.6 553.605 215.664 553.412 215.793C553.225 215.922 553.072 216.104 552.955 216.338C552.838 216.566 552.753 216.839 552.7 217.155C552.647 217.466 552.621 217.806 552.621 218.175ZM565.708 220.688V213.49H568.679V223H565.901L565.708 220.688ZM565.989 218.755L566.763 218.737C566.763 219.376 566.687 219.968 566.534 220.513C566.382 221.052 566.156 221.521 565.857 221.919C565.564 222.317 565.201 222.628 564.768 222.851C564.34 223.067 563.845 223.176 563.282 223.176C562.813 223.176 562.383 223.111 561.99 222.982C561.604 222.848 561.27 222.64 560.988 222.358C560.707 222.071 560.487 221.705 560.329 221.26C560.177 220.809 560.101 220.27 560.101 219.643V213.49H563.062V219.66C563.062 219.871 563.089 220.053 563.142 220.205C563.194 220.357 563.271 220.486 563.37 220.592C563.47 220.691 563.593 220.768 563.739 220.82C563.892 220.867 564.064 220.891 564.258 220.891C564.703 220.891 565.052 220.797 565.304 220.609C565.556 220.422 565.731 220.167 565.831 219.845C565.937 219.522 565.989 219.159 565.989 218.755ZM573.442 213.49V223H570.472V213.49H573.442ZM570.296 211.038C570.296 210.616 570.448 210.271 570.753 210.001C571.058 209.731 571.453 209.597 571.939 209.597C572.426 209.597 572.821 209.731 573.126 210.001C573.431 210.271 573.583 210.616 573.583 211.038C573.583 211.46 573.431 211.806 573.126 212.075C572.821 212.345 572.426 212.479 571.939 212.479C571.453 212.479 571.058 212.345 570.753 212.075C570.448 211.806 570.296 211.46 570.296 211.038ZM578.18 215.521V223H575.218V213.49H577.995L578.18 215.521ZM577.828 217.92L577.134 217.938C577.134 217.211 577.222 216.563 577.397 215.995C577.573 215.421 577.822 214.935 578.145 214.536C578.467 214.138 578.851 213.836 579.296 213.631C579.747 213.42 580.248 213.314 580.799 213.314C581.238 213.314 581.64 213.379 582.003 213.508C582.372 213.637 582.688 213.845 582.952 214.132C583.222 214.419 583.427 214.8 583.567 215.274C583.714 215.743 583.787 216.323 583.787 217.015V223H580.808V217.006C580.808 216.625 580.755 216.335 580.649 216.136C580.544 215.931 580.392 215.79 580.192 215.714C579.993 215.638 579.75 215.6 579.463 215.6C579.158 215.6 578.9 215.658 578.689 215.775C578.479 215.893 578.309 216.057 578.18 216.268C578.057 216.473 577.966 216.716 577.907 216.997C577.854 217.278 577.828 217.586 577.828 217.92ZM585.062 218.342V218.157C585.062 217.46 585.161 216.818 585.36 216.232C585.56 215.641 585.853 215.128 586.239 214.694C586.626 214.261 587.104 213.924 587.672 213.684C588.24 213.438 588.896 213.314 589.641 213.314C590.391 213.314 591.05 213.438 591.618 213.684C592.192 213.924 592.673 214.261 593.06 214.694C593.446 215.128 593.739 215.641 593.938 216.232C594.138 216.818 594.237 217.46 594.237 218.157V218.342C594.237 219.033 594.138 219.675 593.938 220.267C593.739 220.853 593.446 221.365 593.06 221.805C592.673 222.238 592.195 222.575 591.627 222.815C591.059 223.056 590.402 223.176 589.658 223.176C588.914 223.176 588.255 223.056 587.681 222.815C587.106 222.575 586.626 222.238 586.239 221.805C585.853 221.365 585.56 220.853 585.36 220.267C585.161 219.675 585.062 219.033 585.062 218.342ZM588.023 218.157V218.342C588.023 218.699 588.05 219.033 588.103 219.344C588.155 219.654 588.243 219.927 588.366 220.161C588.489 220.39 588.656 220.568 588.867 220.697C589.078 220.826 589.342 220.891 589.658 220.891C589.969 220.891 590.227 220.826 590.432 220.697C590.643 220.568 590.81 220.39 590.933 220.161C591.056 219.927 591.144 219.654 591.196 219.344C591.249 219.033 591.275 218.699 591.275 218.342V218.157C591.275 217.812 591.249 217.486 591.196 217.182C591.144 216.871 591.056 216.599 590.933 216.364C590.81 216.124 590.643 215.937 590.432 215.802C590.221 215.667 589.957 215.6 589.641 215.6C589.33 215.6 589.069 215.667 588.858 215.802C588.653 215.937 588.489 216.124 588.366 216.364C588.243 216.599 588.155 216.871 588.103 217.182C588.05 217.486 588.023 217.812 588.023 218.157Z" fill="white"/>
<rect x="508" y="196" width="109" height="41" rx="3" stroke="#424242" stroke-width="4"/>
<rect x="637" y="196" width="129" height="41" rx="3" fill="#424242"/>
<path d="M661.844 210.203H664.357L667.214 219.106L670.07 210.203H672.584L668.233 223H666.194L661.844 210.203ZM660.314 210.203H662.916L663.399 220.012V223H660.314V210.203ZM671.512 210.203H674.122V223H671.028V220.012L671.512 210.203ZM675.59 218.342V218.157C675.59 217.46 675.689 216.818 675.889 216.232C676.088 215.641 676.381 215.128 676.768 214.694C677.154 214.261 677.632 213.924 678.2 213.684C678.769 213.438 679.425 213.314 680.169 213.314C680.919 213.314 681.578 213.438 682.146 213.684C682.721 213.924 683.201 214.261 683.588 214.694C683.975 215.128 684.268 215.641 684.467 216.232C684.666 216.818 684.766 217.46 684.766 218.157V218.342C684.766 219.033 684.666 219.675 684.467 220.267C684.268 220.853 683.975 221.365 683.588 221.805C683.201 222.238 682.724 222.575 682.155 222.815C681.587 223.056 680.931 223.176 680.187 223.176C679.442 223.176 678.783 223.056 678.209 222.815C677.635 222.575 677.154 222.238 676.768 221.805C676.381 221.365 676.088 220.853 675.889 220.267C675.689 219.675 675.59 219.033 675.59 218.342ZM678.552 218.157V218.342C678.552 218.699 678.578 219.033 678.631 219.344C678.684 219.654 678.771 219.927 678.895 220.161C679.018 220.39 679.185 220.568 679.396 220.697C679.606 220.826 679.87 220.891 680.187 220.891C680.497 220.891 680.755 220.826 680.96 220.697C681.171 220.568 681.338 220.39 681.461 220.161C681.584 219.927 681.672 219.654 681.725 219.344C681.777 219.033 681.804 218.699 681.804 218.342V218.157C681.804 217.812 681.777 217.486 681.725 217.182C681.672 216.871 681.584 216.599 681.461 216.364C681.338 216.124 681.171 215.937 680.96 215.802C680.749 215.667 680.485 215.6 680.169 215.6C679.858 215.6 679.598 215.667 679.387 215.802C679.182 215.937 679.018 216.124 678.895 216.364C678.771 216.599 678.684 216.871 678.631 217.182C678.578 217.486 678.552 217.812 678.552 218.157ZM688.993 215.521V223H686.031V213.49H688.809L688.993 215.521ZM688.642 217.92L687.947 217.938C687.947 217.211 688.035 216.563 688.211 215.995C688.387 215.421 688.636 214.935 688.958 214.536C689.28 214.138 689.664 213.836 690.109 213.631C690.561 213.42 691.062 213.314 691.612 213.314C692.052 213.314 692.453 213.379 692.816 213.508C693.186 213.637 693.502 213.845 693.766 214.132C694.035 214.419 694.24 214.8 694.381 215.274C694.527 215.743 694.601 216.323 694.601 217.015V223H691.621V217.006C691.621 216.625 691.568 216.335 691.463 216.136C691.357 215.931 691.205 215.79 691.006 215.714C690.807 215.638 690.563 215.6 690.276 215.6C689.972 215.6 689.714 215.658 689.503 215.775C689.292 215.893 689.122 216.057 688.993 216.268C688.87 216.473 688.779 216.716 688.721 216.997C688.668 217.278 688.642 217.586 688.642 217.92ZM702.221 213.49H704.91V222.631C704.91 223.51 704.708 224.254 704.304 224.863C703.899 225.479 703.334 225.944 702.607 226.261C701.887 226.583 701.043 226.744 700.076 226.744C699.648 226.744 699.212 226.688 698.767 226.577C698.321 226.472 697.905 226.313 697.519 226.103C697.132 225.892 696.807 225.631 696.543 225.32L697.782 223.58C698.022 223.85 698.324 224.078 698.688 224.266C699.051 224.459 699.479 224.556 699.971 224.556C700.398 224.556 700.756 224.479 701.043 224.327C701.336 224.175 701.559 223.952 701.711 223.659C701.863 223.372 701.939 223.023 701.939 222.613V215.74L702.221 213.49ZM695.901 218.359V218.175C695.901 217.454 695.989 216.798 696.165 216.206C696.347 215.608 696.604 215.096 696.938 214.668C697.278 214.234 697.688 213.9 698.169 213.666C698.649 213.432 699.191 213.314 699.795 213.314C700.445 213.314 700.979 213.44 701.395 213.692C701.816 213.938 702.153 214.284 702.405 214.729C702.663 215.175 702.862 215.696 703.003 216.294C703.149 216.886 703.272 217.524 703.372 218.21V218.43C703.272 219.074 703.135 219.684 702.959 220.258C702.789 220.826 702.566 221.33 702.291 221.77C702.016 222.209 701.67 222.555 701.254 222.807C700.844 223.053 700.352 223.176 699.777 223.176C699.18 223.176 698.641 223.056 698.16 222.815C697.686 222.575 697.278 222.238 696.938 221.805C696.604 221.371 696.347 220.861 696.165 220.275C695.989 219.689 695.901 219.051 695.901 218.359ZM698.863 218.175V218.359C698.863 218.717 698.896 219.048 698.96 219.353C699.03 219.657 699.136 219.927 699.276 220.161C699.417 220.39 699.59 220.568 699.795 220.697C700.006 220.826 700.252 220.891 700.533 220.891C700.961 220.891 701.307 220.8 701.57 220.618C701.834 220.437 702.024 220.179 702.142 219.845C702.259 219.511 702.309 219.118 702.291 218.667V217.973C702.303 217.586 702.276 217.246 702.212 216.953C702.147 216.654 702.045 216.405 701.904 216.206C701.77 216.007 701.588 215.857 701.359 215.758C701.137 215.652 700.867 215.6 700.551 215.6C700.275 215.6 700.032 215.664 699.821 215.793C699.61 215.922 699.435 216.104 699.294 216.338C699.153 216.566 699.045 216.839 698.969 217.155C698.898 217.466 698.863 217.806 698.863 218.175ZM706.246 218.342V218.157C706.246 217.46 706.346 216.818 706.545 216.232C706.744 215.641 707.037 215.128 707.424 214.694C707.811 214.261 708.288 213.924 708.856 213.684C709.425 213.438 710.081 213.314 710.825 213.314C711.575 213.314 712.234 213.438 712.803 213.684C713.377 213.924 713.857 214.261 714.244 214.694C714.631 215.128 714.924 215.641 715.123 216.232C715.322 216.818 715.422 217.46 715.422 218.157V218.342C715.422 219.033 715.322 219.675 715.123 220.267C714.924 220.853 714.631 221.365 714.244 221.805C713.857 222.238 713.38 222.575 712.812 222.815C712.243 223.056 711.587 223.176 710.843 223.176C710.099 223.176 709.439 223.056 708.865 222.815C708.291 222.575 707.811 222.238 707.424 221.805C707.037 221.365 706.744 220.853 706.545 220.267C706.346 219.675 706.246 219.033 706.246 218.342ZM709.208 218.157V218.342C709.208 218.699 709.234 219.033 709.287 219.344C709.34 219.654 709.428 219.927 709.551 220.161C709.674 220.39 709.841 220.568 710.052 220.697C710.263 220.826 710.526 220.891 710.843 220.891C711.153 220.891 711.411 220.826 711.616 220.697C711.827 220.568 711.994 220.39 712.117 220.161C712.24 219.927 712.328 219.654 712.381 219.344C712.434 219.033 712.46 218.699 712.46 218.342V218.157C712.46 217.812 712.434 217.486 712.381 217.182C712.328 216.871 712.24 216.599 712.117 216.364C711.994 216.124 711.827 215.937 711.616 215.802C711.405 215.667 711.142 215.6 710.825 215.6C710.515 215.6 710.254 215.667 710.043 215.802C709.838 215.937 709.674 216.124 709.551 216.364C709.428 216.599 709.34 216.871 709.287 217.182C709.234 217.486 709.208 217.812 709.208 218.157ZM725.521 223H722.682L722.699 220.627H725.521C726.106 220.627 726.602 220.486 727.006 220.205C727.416 219.924 727.727 219.505 727.938 218.948C728.154 218.386 728.263 217.694 728.263 216.874V216.32C728.263 215.705 728.201 215.166 728.078 214.703C727.961 214.234 727.785 213.845 727.551 213.534C727.316 213.218 727.023 212.98 726.672 212.822C726.326 212.664 725.928 212.585 725.477 212.585H722.629V210.203H725.477C726.344 210.203 727.138 210.353 727.858 210.651C728.585 210.944 729.212 211.366 729.739 211.917C730.272 212.462 730.683 213.109 730.97 213.859C731.263 214.604 731.409 215.43 731.409 216.338V216.874C731.409 217.776 731.263 218.603 730.97 219.353C730.683 220.103 730.275 220.75 729.748 221.295C729.221 221.84 728.597 222.262 727.876 222.561C727.161 222.854 726.376 223 725.521 223ZM724.448 210.203V223H721.363V210.203H724.448ZM738.238 217.56H734.942L734.925 215.538H737.597C738.077 215.538 738.461 215.485 738.748 215.38C739.035 215.269 739.243 215.107 739.372 214.896C739.507 214.686 739.574 214.422 739.574 214.105C739.574 213.742 739.507 213.449 739.372 213.227C739.237 213.004 739.023 212.843 738.73 212.743C738.443 212.638 738.071 212.585 737.614 212.585H736.103V223H733.018V210.203H737.614C738.405 210.203 739.111 210.276 739.732 210.423C740.354 210.563 740.881 210.78 741.314 211.073C741.754 211.366 742.088 211.735 742.316 212.181C742.545 212.62 742.659 213.139 742.659 213.736C742.659 214.258 742.548 214.747 742.325 215.204C742.103 215.661 741.73 216.033 741.209 216.32C740.693 216.602 739.987 216.748 739.091 216.76L738.238 217.56ZM738.115 223H734.195L735.25 220.627H738.115C738.537 220.627 738.874 220.562 739.126 220.434C739.384 220.299 739.568 220.123 739.68 219.906C739.797 219.684 739.855 219.438 739.855 219.168C739.855 218.84 739.8 218.556 739.688 218.315C739.583 218.075 739.413 217.891 739.179 217.762C738.944 217.627 738.631 217.56 738.238 217.56H735.646L735.663 215.538H738.766L739.486 216.347C740.342 216.312 741.019 216.432 741.517 216.707C742.021 216.982 742.381 217.346 742.598 217.797C742.814 218.248 742.923 218.72 742.923 219.212C742.923 220.05 742.741 220.75 742.378 221.312C742.021 221.875 741.484 222.297 740.77 222.578C740.055 222.859 739.17 223 738.115 223Z" fill="white"/>
<rect x="637" y="196" width="129" height="41" rx="3" stroke="#424242" stroke-width="4"/>
<path d="M1066 0H1348C1356.28 0 1363 6.71573 1363 15V282C1363 290.284 1356.28 297 1348 297H1066V0Z" fill="white"/>
<path d="M1181.2 164V151.538H1182.75V162.702H1192.62V164H1181.2ZM1209.24 151.538V157.769C1209.24 158.505 1209.23 159.175 1209.21 159.781C1209.19 160.387 1209.13 160.931 1209.02 161.412C1208.92 161.893 1208.76 162.312 1208.53 162.669C1208.3 163.026 1207.98 163.324 1207.55 163.562C1207.13 163.794 1206.59 163.968 1205.94 164.081C1205.29 164.2 1204.49 164.26 1203.54 164.26H1199.89C1198.94 164.26 1198.13 164.2 1197.48 164.081C1196.83 163.968 1196.29 163.794 1195.87 163.562C1195.45 163.324 1195.12 163.026 1194.89 162.669C1194.66 162.312 1194.5 161.893 1194.39 161.412C1194.28 160.931 1194.22 160.387 1194.21 159.781C1194.19 159.175 1194.18 158.505 1194.18 157.769V151.538H1195.74V157.769C1195.74 158.548 1195.75 159.219 1195.76 159.781C1195.77 160.338 1195.82 160.809 1195.9 161.193C1195.97 161.577 1196.09 161.885 1196.25 162.118C1196.42 162.35 1196.66 162.529 1196.97 162.653C1197.28 162.778 1197.66 162.861 1198.14 162.905C1198.61 162.943 1199.2 162.962 1199.89 162.962H1203.54C1204.23 162.962 1204.81 162.943 1205.28 162.905C1205.76 162.861 1206.15 162.778 1206.45 162.653C1206.76 162.529 1207 162.35 1207.16 162.118C1207.33 161.885 1207.45 161.577 1207.53 161.193C1207.61 160.809 1207.66 160.338 1207.67 159.781C1207.68 159.219 1207.68 158.548 1207.68 157.769L1207.68 151.538H1209.24ZM1213.4 152.577V164H1211.85V151.538H1214.44L1221.7 162.442L1228.96 151.538H1231.45V164H1229.89V152.747L1222.49 164H1220.92L1213.4 152.577ZM1234.56 151.538H1236.12V164H1234.56V151.538Z" fill="#0C1B00"/>
<path d="M1240.79 164H1239.24V151.538H1241.97L1253.39 162.442V151.538H1254.95V164H1252.87L1240.79 152.837V164ZM1258.07 164V151.538H1270.54V152.837H1259.63V156.99H1270.02V158.288H1259.63V162.702H1270.54V164H1258.07ZM1280.86 157.428L1288.19 164H1285.98L1279.78 158.434L1273.78 164H1271.57L1278.66 157.428L1272.09 151.538H1274.3L1279.74 156.422L1285 151.538H1287.21L1280.86 157.428ZM1302.47 161.144H1292.6L1291.05 164H1289.23L1296.5 151.538H1298.57L1305.84 164H1304.03L1302.47 161.144ZM1301.69 159.846L1297.54 152.577L1293.38 159.846H1301.69Z" fill="#B5E48C"/>
<path d="M1116.38 143.583L1141.53 134.014L1168.38 141.871L1142.87 155.218L1116.38 143.583Z" fill="#357400"/>
<path d="M1116.38 143.377L1142.29 152.696V178.5L1116.38 167.643V143.377Z" fill="#0C1B00"/>
<path d="M1142.29 152.696L1168.21 141.875V166.536L1142.29 178.493V152.696Z" fill="#B5E48C"/>
</svg>
