<svg width="1363" height="163" viewBox="0 0 1363 163" fill="none" xmlns="http://www.w3.org/2000/svg">
<path d="M0 15C0 6.71573 6.71573 0 15 0H37V163H15C6.71573 163 0 156.284 0 148V15Z" fill="#424242"/>
<rect width="1097" height="163" transform="translate(37)" fill="#F0F0F0"/>
<path d="M101.906 53.9219L94.3945 51.2383V48.0859L104.602 52.375V54.6367L101.906 53.9219ZM94.3945 56.1719L101.918 53.4297L104.602 52.7852V55.0352L94.3945 59.3242V56.1719ZM123.867 58.2578V61H115.277V58.2578H123.867ZM116.414 43.9375V61H112.898V43.9375H116.414ZM132.891 57.9648V48.3203H136.266V61H133.09L132.891 57.9648ZM133.266 55.3633L134.262 55.3398C134.262 56.1836 134.164 56.9688 133.969 57.6953C133.773 58.4141 133.48 59.0391 133.09 59.5703C132.699 60.0938 132.207 60.5039 131.613 60.8008C131.02 61.0898 130.32 61.2344 129.516 61.2344C128.898 61.2344 128.328 61.1484 127.805 60.9766C127.289 60.7969 126.844 60.5195 126.469 60.1445C126.102 59.7617 125.812 59.2734 125.602 58.6797C125.398 58.0781 125.297 57.3555 125.297 56.5117V48.3203H128.672V56.5352C128.672 56.9102 128.715 57.2266 128.801 57.4844C128.895 57.7422 129.023 57.9531 129.188 58.1172C129.352 58.2812 129.543 58.3984 129.762 58.4688C129.988 58.5391 130.238 58.5742 130.512 58.5742C131.207 58.5742 131.754 58.4336 132.152 58.1523C132.559 57.8711 132.844 57.4883 133.008 57.0039C133.18 56.5117 133.266 55.9648 133.266 55.3633ZM142.219 50.9453V61H138.832V48.3203H142.008L142.219 50.9453ZM141.75 54.2148H140.812C140.812 53.332 140.918 52.5195 141.129 51.7773C141.348 51.0273 141.664 50.3789 142.078 49.832C142.5 49.2773 143.02 48.8477 143.637 48.543C144.254 48.2383 144.969 48.0859 145.781 48.0859C146.344 48.0859 146.859 48.1719 147.328 48.3438C147.797 48.5078 148.199 48.7695 148.535 49.1289C148.879 49.4805 149.145 49.9414 149.332 50.5117C149.52 51.0742 149.613 51.75 149.613 52.5391V61H146.238V52.9141C146.238 52.3359 146.16 51.8906 146.004 51.5781C145.848 51.2656 145.625 51.0469 145.336 50.9219C145.055 50.7969 144.715 50.7344 144.316 50.7344C143.879 50.7344 143.496 50.8242 143.168 51.0039C142.848 51.1836 142.582 51.4336 142.371 51.7539C142.16 52.0664 142.004 52.4336 141.902 52.8555C141.801 53.2773 141.75 53.7305 141.75 54.2148ZM149.297 53.8281L148.09 53.9805C148.09 53.1523 148.191 52.3828 148.395 51.6719C148.605 50.9609 148.914 50.3359 149.32 49.7969C149.734 49.2578 150.246 48.8398 150.855 48.543C151.465 48.2383 152.168 48.0859 152.965 48.0859C153.574 48.0859 154.129 48.1758 154.629 48.3555C155.129 48.5273 155.555 48.8047 155.906 49.1875C156.266 49.5625 156.539 50.0547 156.727 50.6641C156.922 51.2734 157.02 52.0195 157.02 52.9023V61H153.633V52.9023C153.633 52.3164 153.555 51.8711 153.398 51.5664C153.25 51.2539 153.031 51.0391 152.742 50.9219C152.461 50.7969 152.125 50.7344 151.734 50.7344C151.328 50.7344 150.973 50.8164 150.668 50.9805C150.363 51.1367 150.109 51.3555 149.906 51.6367C149.703 51.918 149.551 52.2461 149.449 52.6211C149.348 52.9883 149.297 53.3906 149.297 53.8281ZM163.195 48.3203V61H159.809V48.3203H163.195ZM159.598 45.0156C159.598 44.5234 159.77 44.1172 160.113 43.7969C160.457 43.4766 160.918 43.3164 161.496 43.3164C162.066 43.3164 162.523 43.4766 162.867 43.7969C163.219 44.1172 163.395 44.5234 163.395 45.0156C163.395 45.5078 163.219 45.9141 162.867 46.2344C162.523 46.5547 162.066 46.7148 161.496 46.7148C160.918 46.7148 160.457 46.5547 160.113 46.2344C159.77 45.9141 159.598 45.5078 159.598 45.0156ZM169.289 51.0273V61H165.914V48.3203H169.078L169.289 51.0273ZM168.797 54.2148H167.883C167.883 53.2773 168.004 52.4336 168.246 51.6836C168.488 50.9258 168.828 50.2812 169.266 49.75C169.703 49.2109 170.223 48.8008 170.824 48.5195C171.434 48.2305 172.113 48.0859 172.863 48.0859C173.457 48.0859 174 48.1719 174.492 48.3438C174.984 48.5156 175.406 48.7891 175.758 49.1641C176.117 49.5391 176.391 50.0352 176.578 50.6523C176.773 51.2695 176.871 52.0234 176.871 52.9141V61H173.473V52.9023C173.473 52.3398 173.395 51.9023 173.238 51.5898C173.082 51.2773 172.852 51.0586 172.547 50.9336C172.25 50.8008 171.883 50.7344 171.445 50.7344C170.992 50.7344 170.598 50.8242 170.262 51.0039C169.934 51.1836 169.66 51.4336 169.441 51.7539C169.23 52.0664 169.07 52.4336 168.961 52.8555C168.852 53.2773 168.797 53.7305 168.797 54.2148ZM185.273 61.2344C184.289 61.2344 183.406 61.0781 182.625 60.7656C181.844 60.4453 181.18 60.0039 180.633 59.4414C180.094 58.8789 179.68 58.2266 179.391 57.4844C179.102 56.7344 178.957 55.9375 178.957 55.0938V54.625C178.957 53.6641 179.094 52.7852 179.367 51.9883C179.641 51.1914 180.031 50.5 180.539 49.9141C181.055 49.3281 181.68 48.8789 182.414 48.5664C183.148 48.2461 183.977 48.0859 184.898 48.0859C185.797 48.0859 186.594 48.2344 187.289 48.5312C187.984 48.8281 188.566 49.25 189.035 49.7969C189.512 50.3438 189.871 51 190.113 51.7656C190.355 52.5234 190.477 53.3672 190.477 54.2969V55.7031H180.398V53.4531H187.16V53.1953C187.16 52.7266 187.074 52.3086 186.902 51.9414C186.738 51.5664 186.488 51.2695 186.152 51.0508C185.816 50.832 185.387 50.7227 184.863 50.7227C184.418 50.7227 184.035 50.8203 183.715 51.0156C183.395 51.2109 183.133 51.4844 182.93 51.8359C182.734 52.1875 182.586 52.6016 182.484 53.0781C182.391 53.5469 182.344 54.0625 182.344 54.625V55.0938C182.344 55.6016 182.414 56.0703 182.555 56.5C182.703 56.9297 182.91 57.3008 183.176 57.6133C183.449 57.9258 183.777 58.168 184.16 58.3398C184.551 58.5117 184.992 58.5977 185.484 58.5977C186.094 58.5977 186.66 58.4805 187.184 58.2461C187.715 58.0039 188.172 57.6406 188.555 57.1562L190.195 58.9375C189.93 59.3203 189.566 59.6875 189.105 60.0391C188.652 60.3906 188.105 60.6797 187.465 60.9062C186.824 61.125 186.094 61.2344 185.273 61.2344ZM195.117 48.3203L197.215 52.1758L199.371 48.3203H202.969L199.383 54.5195L203.133 61H199.523L197.238 56.9219L194.953 61H191.344L195.094 54.5195L191.508 48.3203H195.117ZM211.453 58.1406V52.4922C211.453 52.0859 211.387 51.7383 211.254 51.4492C211.121 51.1523 210.914 50.9219 210.633 50.7578C210.359 50.5938 210.004 50.5117 209.566 50.5117C209.191 50.5117 208.867 50.5781 208.594 50.7109C208.32 50.8359 208.109 51.0195 207.961 51.2617C207.812 51.4961 207.738 51.7734 207.738 52.0938H204.363C204.363 51.5547 204.488 51.043 204.738 50.5586C204.988 50.0742 205.352 49.6484 205.828 49.2812C206.305 48.9062 206.871 48.6133 207.527 48.4023C208.191 48.1914 208.934 48.0859 209.754 48.0859C210.738 48.0859 211.613 48.25 212.379 48.5781C213.145 48.9062 213.746 49.3984 214.184 50.0547C214.629 50.7109 214.852 51.5312 214.852 52.5156V57.9414C214.852 58.6367 214.895 59.207 214.98 59.6523C215.066 60.0898 215.191 60.4727 215.355 60.8008V61H211.945C211.781 60.6562 211.656 60.2266 211.57 59.7109C211.492 59.1875 211.453 58.6641 211.453 58.1406ZM211.898 53.2773L211.922 55.1875H210.035C209.59 55.1875 209.203 55.2383 208.875 55.3398C208.547 55.4414 208.277 55.5859 208.066 55.7734C207.855 55.9531 207.699 56.1641 207.598 56.4062C207.504 56.6484 207.457 56.9141 207.457 57.2031C207.457 57.4922 207.523 57.7539 207.656 57.9883C207.789 58.2148 207.98 58.3945 208.23 58.5273C208.48 58.6523 208.773 58.7148 209.109 58.7148C209.617 58.7148 210.059 58.6133 210.434 58.4102C210.809 58.207 211.098 57.957 211.301 57.6602C211.512 57.3633 211.621 57.082 211.629 56.8164L212.52 58.2461C212.395 58.5664 212.223 58.8984 212.004 59.2422C211.793 59.5859 211.523 59.9102 211.195 60.2148C210.867 60.5117 210.473 60.7578 210.012 60.9531C209.551 61.1406 209.004 61.2344 208.371 61.2344C207.566 61.2344 206.836 61.0742 206.18 60.7539C205.531 60.4258 205.016 59.9766 204.633 59.4062C204.258 58.8281 204.07 58.1719 204.07 57.4375C204.07 56.7734 204.195 56.1836 204.445 55.668C204.695 55.1523 205.062 54.7188 205.547 54.3672C206.039 54.0078 206.652 53.7383 207.387 53.5586C208.121 53.3711 208.973 53.2773 209.941 53.2773H211.898Z" fill="#888888"/>
<path d="M118.594 98.4219V104.75H101.086V98.4219H118.594ZM103.828 84.875V119H95.6016V84.875H103.828ZM124.125 84.875V119H115.922V84.875H124.125ZM127.992 106.578V106.086C127.992 104.227 128.258 102.516 128.789 100.953C129.32 99.375 130.102 98.0078 131.133 96.8516C132.164 95.6953 133.438 94.7969 134.953 94.1562C136.469 93.5 138.219 93.1719 140.203 93.1719C142.203 93.1719 143.961 93.5 145.477 94.1562C147.008 94.7969 148.289 95.6953 149.32 96.8516C150.352 98.0078 151.133 99.375 151.664 100.953C152.195 102.516 152.461 104.227 152.461 106.086V106.578C152.461 108.422 152.195 110.133 151.664 111.711C151.133 113.273 150.352 114.641 149.32 115.812C148.289 116.969 147.016 117.867 145.5 118.508C143.984 119.148 142.234 119.469 140.25 119.469C138.266 119.469 136.508 119.148 134.977 118.508C133.445 117.867 132.164 116.969 131.133 115.812C130.102 114.641 129.32 113.273 128.789 111.711C128.258 110.133 127.992 108.422 127.992 106.578ZM135.891 106.086V106.578C135.891 107.531 135.961 108.422 136.102 109.25C136.242 110.078 136.477 110.805 136.805 111.43C137.133 112.039 137.578 112.516 138.141 112.859C138.703 113.203 139.406 113.375 140.25 113.375C141.078 113.375 141.766 113.203 142.312 112.859C142.875 112.516 143.32 112.039 143.648 111.43C143.977 110.805 144.211 110.078 144.352 109.25C144.492 108.422 144.562 107.531 144.562 106.578V106.086C144.562 105.164 144.492 104.297 144.352 103.484C144.211 102.656 143.977 101.93 143.648 101.305C143.32 100.664 142.875 100.164 142.312 99.8047C141.75 99.4453 141.047 99.2656 140.203 99.2656C139.375 99.2656 138.68 99.4453 138.117 99.8047C137.57 100.164 137.133 100.664 136.805 101.305C136.477 101.93 136.242 102.656 136.102 103.484C135.961 104.297 135.891 105.164 135.891 106.086ZM163.688 111.453L168.375 93.6406H173.32L171.562 102.57L166.922 119H162.961L163.688 111.453ZM161.836 93.6406L164.742 111.312L165.07 119H160.266L154.266 93.6406H161.836ZM177.492 110.938L180.422 93.6406H187.992L182.039 119H177.234L177.492 110.938ZM173.883 93.6406L178.617 111.406L179.344 119H175.336L170.789 102.617L169.102 93.6406H173.883ZM218.297 84.875V119H210.07V84.875H218.297ZM228.562 84.875V91.2266H200.039V84.875H228.562ZM225.773 106.578V106.086C225.773 104.227 226.039 102.516 226.57 100.953C227.102 99.375 227.883 98.0078 228.914 96.8516C229.945 95.6953 231.219 94.7969 232.734 94.1562C234.25 93.5 236 93.1719 237.984 93.1719C239.984 93.1719 241.742 93.5 243.258 94.1562C244.789 94.7969 246.07 95.6953 247.102 96.8516C248.133 98.0078 248.914 99.375 249.445 100.953C249.977 102.516 250.242 104.227 250.242 106.086V106.578C250.242 108.422 249.977 110.133 249.445 111.711C248.914 113.273 248.133 114.641 247.102 115.812C246.07 116.969 244.797 117.867 243.281 118.508C241.766 119.148 240.016 119.469 238.031 119.469C236.047 119.469 234.289 119.148 232.758 118.508C231.227 117.867 229.945 116.969 228.914 115.812C227.883 114.641 227.102 113.273 226.57 111.711C226.039 110.133 225.773 108.422 225.773 106.578ZM233.672 106.086V106.578C233.672 107.531 233.742 108.422 233.883 109.25C234.023 110.078 234.258 110.805 234.586 111.43C234.914 112.039 235.359 112.516 235.922 112.859C236.484 113.203 237.188 113.375 238.031 113.375C238.859 113.375 239.547 113.203 240.094 112.859C240.656 112.516 241.102 112.039 241.43 111.43C241.758 110.805 241.992 110.078 242.133 109.25C242.273 108.422 242.344 107.531 242.344 106.578V106.086C242.344 105.164 242.273 104.297 242.133 103.484C241.992 102.656 241.758 101.93 241.43 101.305C241.102 100.664 240.656 100.164 240.094 99.8047C239.531 99.4453 238.828 99.2656 237.984 99.2656C237.156 99.2656 236.461 99.4453 235.898 99.8047C235.352 100.164 234.914 100.664 234.586 101.305C234.258 101.93 234.023 102.656 233.883 103.484C233.742 104.297 233.672 105.164 233.672 106.086ZM266.086 84.875H279.516C282.141 84.875 284.422 85.2656 286.359 86.0469C288.297 86.8281 289.789 87.9844 290.836 89.5156C291.898 91.0469 292.43 92.9375 292.43 95.1875C292.43 97.1406 292.125 98.7734 291.516 100.086C290.906 101.398 290.055 102.484 288.961 103.344C287.883 104.188 286.625 104.883 285.188 105.43L282.492 106.953H271.219L271.172 100.602H279.516C280.562 100.602 281.43 100.414 282.117 100.039C282.805 99.6641 283.32 99.1328 283.664 98.4453C284.023 97.7422 284.203 96.9062 284.203 95.9375C284.203 94.9531 284.023 94.1094 283.664 93.4062C283.305 92.7031 282.773 92.1641 282.07 91.7891C281.383 91.4141 280.531 91.2266 279.516 91.2266H274.312V119H266.086V84.875ZM284.766 119L277.219 103.906L285.938 103.859L293.578 118.648V119H284.766ZM311.836 112.836V93.6406H319.758V119H312.352L311.836 112.836ZM312.586 107.68L314.648 107.633C314.648 109.336 314.445 110.914 314.039 112.367C313.633 113.805 313.031 115.055 312.234 116.117C311.453 117.18 310.484 118.008 309.328 118.602C308.188 119.18 306.867 119.469 305.367 119.469C304.117 119.469 302.969 119.297 301.922 118.953C300.891 118.594 300 118.039 299.25 117.289C298.5 116.523 297.914 115.547 297.492 114.359C297.086 113.156 296.883 111.719 296.883 110.047V93.6406H304.781V110.094C304.781 110.656 304.852 111.141 304.992 111.547C305.133 111.953 305.336 112.297 305.602 112.578C305.867 112.844 306.195 113.047 306.586 113.188C306.992 113.312 307.453 113.375 307.969 113.375C309.156 113.375 310.086 113.125 310.758 112.625C311.43 112.125 311.898 111.445 312.164 110.586C312.445 109.727 312.586 108.758 312.586 107.68ZM331.875 99.0547V119H323.977V93.6406H331.383L331.875 99.0547ZM330.938 105.453L329.086 105.5C329.086 103.562 329.32 101.836 329.789 100.32C330.258 98.7891 330.922 97.4922 331.781 96.4297C332.641 95.3672 333.664 94.5625 334.852 94.0156C336.055 93.4531 337.391 93.1719 338.859 93.1719C340.031 93.1719 341.102 93.3438 342.07 93.6875C343.055 94.0312 343.898 94.5859 344.602 95.3516C345.32 96.1172 345.867 97.1328 346.242 98.3984C346.633 99.6484 346.828 101.195 346.828 103.039V119H338.883V103.016C338.883 102 338.742 101.227 338.461 100.695C338.18 100.148 337.773 99.7734 337.242 99.5703C336.711 99.3672 336.062 99.2656 335.297 99.2656C334.484 99.2656 333.797 99.4219 333.234 99.7344C332.672 100.047 332.219 100.484 331.875 101.047C331.547 101.594 331.305 102.242 331.148 102.992C331.008 103.742 330.938 104.562 330.938 105.453ZM363.773 108.195H357.047C357.047 106.82 357.141 105.609 357.328 104.562C357.531 103.5 357.875 102.547 358.359 101.703C358.844 100.859 359.5 100.078 360.328 99.3594C361.062 98.75 361.695 98.1641 362.227 97.6016C362.758 97.0391 363.164 96.4688 363.445 95.8906C363.727 95.3125 363.867 94.6953 363.867 94.0391C363.867 93.2266 363.75 92.5625 363.516 92.0469C363.297 91.5312 362.961 91.1484 362.508 90.8984C362.07 90.6328 361.516 90.5 360.844 90.5C360.297 90.5 359.781 90.6328 359.297 90.8984C358.828 91.1641 358.445 91.5781 358.148 92.1406C357.852 92.6875 357.688 93.4141 357.656 94.3203H349.711C349.758 91.9922 350.273 90.1016 351.258 88.6484C352.258 87.1797 353.586 86.1094 355.242 85.4375C356.914 84.75 358.781 84.4062 360.844 84.4062C363.125 84.4062 365.086 84.7578 366.727 85.4609C368.367 86.1641 369.625 87.2109 370.5 88.6016C371.375 89.9766 371.812 91.6719 371.812 93.6875C371.812 95.0312 371.555 96.2031 371.039 97.2031C370.539 98.1875 369.859 99.1094 369 99.9688C368.156 100.812 367.211 101.719 366.164 102.688C365.258 103.484 364.641 104.297 364.312 105.125C363.984 105.938 363.805 106.961 363.773 108.195ZM356.086 115.32C356.086 114.195 356.492 113.258 357.305 112.508C358.117 111.742 359.172 111.359 360.469 111.359C361.766 111.359 362.82 111.742 363.633 112.508C364.445 113.258 364.852 114.195 364.852 115.32C364.852 116.445 364.445 117.391 363.633 118.156C362.82 118.906 361.766 119.281 360.469 119.281C359.172 119.281 358.117 118.906 357.305 118.156C356.492 117.391 356.086 116.445 356.086 115.32Z" fill="black"/>
<path d="M1134 0H1348C1356.28 0 1363 6.71573 1363 15V148C1363 156.284 1356.28 163 1348 163H1134V0Z" fill="#357400"/>
<path d="M1260.62 78.8078C1263.81 78.8078 1266.93 79.7552 1269.59 81.5302C1272.25 83.3052 1274.32 85.8281 1275.54 88.7798C1276.76 91.7315 1277.08 94.9795 1276.46 98.1131C1275.84 101.247 1274.3 104.125 1272.04 106.384C1269.78 108.643 1266.9 110.182 1263.77 110.805C1260.63 111.428 1257.39 111.108 1254.43 109.886C1251.48 108.663 1248.96 106.593 1247.18 103.936C1245.41 101.28 1244.46 98.1565 1244.46 94.9616C1244.46 90.6774 1246.16 86.5686 1249.19 83.5392C1252.22 80.5097 1256.33 78.8078 1260.62 78.8078ZM1260.62 73.4232C1256.36 73.4232 1252.19 74.6864 1248.65 77.0531C1245.11 79.4198 1242.35 82.7836 1240.72 86.7192C1239.09 90.6549 1238.66 94.9855 1239.49 99.1636C1240.32 103.342 1242.37 107.179 1245.39 110.192C1248.4 113.204 1252.24 115.255 1256.41 116.086C1260.59 116.917 1264.92 116.491 1268.86 114.861C1272.79 113.23 1276.16 110.47 1278.52 106.928C1280.89 103.386 1282.15 99.2215 1282.15 94.9616C1282.15 89.2493 1279.88 83.7709 1275.85 79.7317C1271.81 75.6924 1266.33 73.4232 1260.62 73.4232Z" fill="white"/>
<path d="M1274.08 46.4999H1220.23C1218.8 46.4999 1217.43 47.0672 1216.42 48.0771C1215.41 49.0869 1214.85 50.4565 1214.85 51.8845V105.731C1214.85 107.159 1215.41 108.528 1216.42 109.538C1217.43 110.548 1218.8 111.115 1220.23 111.115H1231V105.731H1220.23V68.0383H1279.46V51.8845C1279.46 50.4565 1278.89 49.0869 1277.88 48.0771C1276.87 47.0672 1275.5 46.4999 1274.08 46.4999ZM1220.23 62.6537V51.8845H1274.08V62.6537H1220.23Z" fill="white"/>
<path d="M1255.23 86.8848V103.039L1268.69 94.9617L1255.23 86.8848Z" fill="white"/>
</svg>
